<?xml version="1.0" encoding="utf-8"?>
<!-- Generator: Adobe Illustrator 26.0.1, SVG Export Plug-In . SVG Version: 6.00 Build 0)  -->
<svg version="1.1" id="Layer_1" xmlns="http://www.w3.org/2000/svg" xmlns:xlink="http://www.w3.org/1999/xlink" x="0px" y="0px"
	 viewBox="0 0 1000 1000" style="enable-background:new 0 0 1000 1000;" xml:space="preserve">
<style type="text/css">
	.st0{fill:#009295;}
	.st1{fill:#E6CE9E;}
	.st2{fill:#C7C5C8;}
</style>
<g>
	<path class="st0" d="M820.57,451.6l0.24,0.17c-6.35-14.53-15.85-31.33-29.66-45.77l-7.87-8.91l-8.45,8.91h0.01
		c-14.81,15.48-24.66,33.65-30.99,48.83c-12.61,32.2-18.64,67.41-17.44,103.68c9.77-31.97,24.59-67.45,43.73-103.23
		c0.35,55.98,4.88,115.27,12.49,160.28c7.64-44.97,12.13-104.21,12.5-160.17c17.3,32.5,32.43,67.39,43.72,103.12
		C840.93,520.6,834.35,484.4,820.57,451.6"/>
	<path class="st1" d="M724.41,390.25c-18.46,4.48-36.61,10.6-53.71,18.83c-4.39,2.13-8.72,4.36-13,6.71
		c-2.14,1.17-4.27,2.39-6.39,3.63c-1.05,0.62-2.12,1.25-3.17,1.9c-0.83,0.5-1.99,1.56-2.93,1.78c25.72-5.94,48.64-9.56,79.73-11.76
		c0,0-8.82,12.36-15.54,37.4c-3.76,14.02-3.25,34.2,0,52.12c0,0,6.3-30.55,24.02-64.08c9.7-18.33,22.8-37.54,40.15-53.11
		C757.01,384.15,740.52,386.34,724.41,390.25"/>
	<path class="st2" d="M841.08,390.25c18.45,4.48,36.61,10.6,53.71,18.83c4.39,2.13,8.72,4.36,12.99,6.71
		c2.15,1.17,4.28,2.39,6.41,3.63c1.05,0.62,2.1,1.25,3.17,1.9c0.82,0.5,1.98,1.56,2.92,1.78c-25.72-5.94-48.64-9.56-79.71-11.76
		c0,0,8.82,12.36,15.52,37.4c3.76,14.02,3.26,34.2,0,52.12c0,0-6.3-30.55-24.02-64.08c-9.68-18.33-22.8-37.54-40.17-53.11
		C808.47,384.15,824.98,386.34,841.08,390.25"/>
	<path class="st0" d="M111.41,491.8v4.7H92.68c-3.38,0-6.05-0.45-8-1.33c-1.95-0.88-3.37-2.34-4.26-4.37
		c-0.88-2.03-1.33-4.83-1.33-8.4c0-3.49,0.42-6.26,1.27-8.31c0.84-2.04,2.23-3.51,4.15-4.41c1.91-0.9,4.55-1.35,7.9-1.35
		c1.61,0,3.84,0.07,6.67,0.21c2.85,0.15,4.9,0.3,6.2,0.44v22.82H111.41z M85.2,487.98c0.57,1.37,1.51,2.34,2.8,2.93
		c1.29,0.59,3.05,0.89,5.3,0.89h6.79v-18.4c-2.94-0.22-5.27-0.33-7-0.33c-2.18,0-3.9,0.31-5.17,0.91c-1.27,0.61-2.18,1.58-2.73,2.92
		c-0.55,1.35-0.83,3.16-0.83,5.44C84.35,484.74,84.62,486.62,85.2,487.98 M87.66,458.37h4.69v5.35h-4.69V458.37z M95.06,458.37h4.64
		v5.35h-4.64V458.37z"/>
	<path class="st0" d="M124.9,468.87v27.63h-13.48v-4.7h8.23v-22.93H124.9z M116.22,500.91h4.7v5.31h-4.7V500.91z M123.63,500.91
		h4.64v5.31h-4.64V500.91z"/>
	<path class="st0" d="M132.68,510.08l-1.33-0.11v-4.65c1.22,0.12,2.22,0.18,2.98,0.18c1.66,0,2.92-0.66,3.77-1.99
		c0.84-1.33,1.27-3.18,1.27-5.58v-29.01h5.2v27.9c0,4.35-0.75,7.67-2.27,9.98c-1.51,2.29-3.79,3.45-6.84,3.45
		C134.6,510.25,133.68,510.2,132.68,510.08"/>
	<polygon class="st0" points="163.62,491.8 163.62,496.5 153.13,496.5 153.13,457.16 158.37,457.16 158.37,491.8 	"/>
	<path class="st0" d="M197.93,491.8v4.7h-34.31v-4.7h7.18c-0.85-2.11-1.29-5.04-1.29-8.85c0-3.63,0.45-6.46,1.34-8.47
		c0.88-2.01,2.28-3.44,4.21-4.28c1.94-0.86,4.63-1.28,8.1-1.28c2.87,0,5.47,0.13,7.79,0.4l1.93,0.21v22.27H197.93z M175.27,488.78
		c0.33,1.24,0.76,2.24,1.27,3.02h11.11v-18.07c-2.28-0.19-3.89-0.28-4.81-0.28c-2.22,0-3.88,0.31-5.02,0.94
		c-1.15,0.62-1.94,1.64-2.39,3.03c-0.44,1.4-0.65,3.37-0.65,5.91C174.79,485.73,174.94,487.55,175.27,488.78 M175.66,458.37h4.7
		v5.35h-4.7V458.37z M183.07,458.37h4.64v5.35h-4.64V458.37z"/>
	<path class="st0" d="M232.67,491.79v4.7h-6.24c-1.81,0-3.66-0.21-5.55-0.65c-1.88-0.45-3.67-1.05-5.33-1.83
		c-1.58,0.78-3.3,1.38-5.19,1.83c-1.88,0.44-3.7,0.65-5.47,0.65h-6.96v-4.7h6.78c1.88,0,3.82-0.34,5.81-1.04
		c-2.68-2.14-4.83-4.53-6.44-7.16c-1.59-2.62-2.44-5.03-2.52-7.2l-0.16-4.2c2.22-1.22,4.52-2.18,6.94-2.87
		c2.4-0.7,4.8-1.05,7.15-1.05c2.36,0,4.76,0.35,7.21,1.05c2.45,0.69,4.8,1.65,7.05,2.87l-0.22,4.2c-0.08,2.17-0.92,4.58-2.52,7.2
		c-1.61,2.63-3.77,5.02-6.49,7.16c2.03,0.7,3.98,1.04,5.85,1.04H232.67z M209.06,482.24c1.56,2.39,3.72,4.45,6.48,6.19
		c2.81-1.78,5-3.84,6.58-6.21c1.57-2.39,2.37-4.83,2.37-7.38c-3.39-1.21-6.37-1.82-8.96-1.82c-2.54,0-5.48,0.61-8.83,1.82
		C206.71,477.39,207.49,479.85,209.06,482.24"/>
	<polygon class="st0" points="244.72,457.16 244.72,496.5 232.68,496.5 232.68,491.8 239.47,491.8 239.47,457.16 	"/>
	<rect x="254.33" y="457.16" class="st0" width="5.25" height="39.33"/>
	<path class="st0" d="M311.23,491.8v4.7H292.5c-3.39,0-6.06-0.45-8.01-1.33c-1.95-0.88-3.37-2.34-4.25-4.37
		c-0.89-2.03-1.32-4.83-1.32-8.4c0-3.49,0.42-6.26,1.26-8.31c0.86-2.04,2.24-3.51,4.15-4.41c1.92-0.9,4.55-1.35,7.9-1.35
		c1.61,0,3.84,0.07,6.68,0.21c2.84,0.15,4.9,0.3,6.18,0.44v22.82H311.23z M285.02,487.98c0.57,1.37,1.49,2.34,2.78,2.93
		c1.29,0.59,3.06,0.89,5.3,0.89h6.8v-18.4c-2.95-0.22-5.29-0.33-7.02-0.33c-2.17,0-3.9,0.31-5.17,0.91
		c-1.27,0.61-2.18,1.58-2.74,2.92c-0.55,1.35-0.82,3.16-0.82,5.44C284.17,484.74,284.45,486.62,285.02,487.98 M287.48,458.37h4.7
		v5.35h-4.7V458.37z M294.89,458.37h4.63v5.35h-4.63V458.37z"/>
	<path class="st0" d="M332.94,491.8v4.7h-21.71v-4.7h8.23v-22.93h5.26v22.93H332.94z M315.98,500.91h4.7v5.31h-4.7V500.91z
		 M323.38,500.91h4.64v5.31h-4.64V500.91z"/>
	<path class="st0" d="M372.06,491.79v4.7h-2.16c-0.65,0-1.37-0.21-2.1-0.63c-0.74-0.42-1.37-0.96-1.89-1.64v2.27h-32.97v-4.7h8.94
		c-0.51-3.01-0.76-5.98-0.76-8.89c0-2.32,0.16-4.67,0.5-7.04c0.32-2.38,0.69-4.37,1.1-5.94c0.99-0.41,2.36-0.78,4.11-1.11
		c1.77-0.33,3.65-0.5,5.67-0.5c4.8,0,8.22,1.12,10.31,3.37c2.08,2.25,3.11,5.9,3.11,10.99v6.85c0.41,0.67,0.96,1.21,1.64,1.64
		c0.68,0.42,1.45,0.62,2.34,0.62H372.06z M346.57,487.85c0.16,1.63,0.33,2.96,0.52,3.94h13.59v-9.22c0-3.38-0.71-5.83-2.13-7.32
		c-1.42-1.49-3.67-2.24-6.76-2.24c-1.59,0-3.14,0.16-4.64,0.5c-0.56,3.39-0.83,6.52-0.83,9.39
		C346.32,484.55,346.39,486.22,346.57,487.85"/>
	<path class="st0" d="M393.76,491.8v4.7h-21.71v-4.7h8.23v-22.93h5.25v22.93H393.76z M380.4,458.31h5.02v5.41h-5.02V458.31z"/>
	<path class="st0" d="M415.48,491.8v4.7h-21.72v-4.7H402v-22.93h5.24v22.93H415.48z M398.58,458.37h4.7v5.35h-4.7V458.37z
		 M405.98,458.37h4.63v5.35h-4.63V458.37z"/>
	<polygon class="st0" points="427.52,457.16 427.52,496.5 415.48,496.5 415.48,491.8 422.26,491.8 422.26,457.16 	"/>
	<rect x="437.13" y="457.16" class="st0" width="5.26" height="39.33"/>
	<path class="st0" d="M503.98,469.53v29c0,2.32-0.51,4.4-1.55,6.24c-1.03,1.85-2.55,3.29-4.59,4.33c-2.03,1.05-4.45,1.57-7.28,1.57
		h-15.53c-2.84,0-5.25-0.52-7.26-1.57c-2-1.04-3.52-2.48-4.53-4.33c-1.02-1.84-1.53-3.94-1.53-6.29c0-3.06,0.71-8.43,2.12-16.14
		l4.91,0.79l-0.39,2.41c-0.37,2.44-0.72,4.77-1.03,7c-0.3,2.23-0.47,3.91-0.47,5.05c0,2.58,0.67,4.62,2.02,6.13
		c1.35,1.52,3.43,2.27,6.27,2.27h15.25c2.82,0,4.93-0.75,6.29-2.27c1.36-1.51,2.04-3.53,2.04-6.07v-1.15h-7.61
		c-2.66,0-4.73-0.36-6.22-1.06c-1.49-0.71-2.58-1.97-3.26-3.81c-0.67-1.84-1.03-4.53-1.03-8.07c0-3.68,0.4-6.57,1.2-8.68
		c0.79-2.1,2.13-3.63,4.03-4.58c1.89-0.96,4.51-1.44,7.87-1.44c1.21,0,2.64,0.04,4.28,0.13c1.64,0.1,2.97,0.2,4,0.32L503.98,469.53z
		 M486.52,488.67c0.45,1.2,1.14,2.02,2.1,2.46c0.96,0.44,2.31,0.67,4.04,0.67h6.07v-18.01c-1.95-0.19-3.49-0.28-4.64-0.28
		c-2.08,0-3.75,0.32-4.93,0.97c-1.21,0.65-2.05,1.68-2.55,3.1c-0.5,1.42-0.74,3.35-0.74,5.82
		C485.86,485.71,486.08,487.47,486.52,488.67 M488.45,458.37h4.7v5.35h-4.7V458.37z M495.86,458.37h4.64v5.35h-4.64V458.37z"/>
	<path class="st0" d="M527.82,468.18c2.19,0.23,3.99,0.5,5.39,0.8v23.65c0,5.56-0.73,9.87-2.18,12.95
		c-1.45,3.08-4.17,4.62-8.15,4.62c-1.55,0-4.46-0.31-8.74-0.89v-4.7c3.61,0.59,6.39,0.89,8.35,0.89c1.25,0,2.26-0.23,3.04-0.67
		c0.78-0.44,1.37-1.32,1.77-2.63c0.41-1.31,0.6-3.21,0.6-5.72h-7.56c-4.28,0-7.09-1.31-8.44-3.92c-1.34-2.61-2.02-5.86-2.02-9.72
		c0.04-3.65,0.43-6.55,1.2-8.72c0.76-2.19,2-3.77,3.76-4.79c1.75-1.01,4.13-1.52,7.15-1.52
		C523.68,467.82,525.62,467.94,527.82,468.18 M516.47,489.23c0.88,1.71,2.74,2.56,5.58,2.56h5.9v-18.9c-1.81-0.25-3.4-0.38-4.8-0.38
		c-2.98,0-5.06,0.79-6.22,2.35c-1.15,1.56-1.75,4.17-1.8,7.81C515.14,485.33,515.58,487.51,516.47,489.23"/>
	<path class="st0" d="M567.07,491.8v4.7h-28.51v-4.7h17.9v-5.09c0-5.23-1.01-8.92-3.04-11.07c-2.03-2.15-4.4-3.24-7.13-3.24h-4.81
		l-0.39-3.92c0.55-0.18,1.46-0.37,2.71-0.54c1.26-0.19,2.43-0.29,3.55-0.29c2.65,0,5.05,0.64,7.2,1.92
		c2.15,1.27,3.88,3.31,5.17,6.11c1.3,2.8,1.94,6.38,1.94,10.77v5.35H567.07z"/>
	<path class="st0" d="M588.78,491.8v4.7h-21.71v-4.7h8.24v-22.93h5.24v22.93H588.78z M575.41,458.31h5.02v5.41h-5.02V458.31z"/>
	<path class="st0" d="M627.15,472.59c1.93,2.86,2.9,6.21,2.9,10.04v13.87h-41.27v-4.7h7.84v-22.93h5.19v8.83
		c1.66-2.05,3.16-3.74,4.51-5.02c1.33-1.29,2.92-2.34,4.72-3.15c1.8-0.81,3.89-1.21,6.24-1.21
		C621.92,468.33,625.21,469.76,627.15,472.59 M601.81,484.34v7.46h23.04v-8.29c0-2.98-0.71-5.47-2.15-7.48c-1.44-2.02-3.53-3-6.25-3
		C611.41,473.03,606.53,476.78,601.81,484.34"/>
	<path class="st0" d="M78.9,527.7h8.18c1.49,0,2.73,0.2,3.68,0.61c0.96,0.4,1.73,0.92,2.28,1.54c0.57,0.62,0.96,1.33,1.18,2.1
		c0.21,0.76,0.32,1.53,0.32,2.25c0,0.74-0.13,1.47-0.4,2.15c-0.25,0.68-0.63,1.32-1.13,1.87c-0.49,0.55-1.1,1.03-1.81,1.41
		c-0.71,0.39-1.51,0.62-2.38,0.71l6.62,10.61h-3.95l-5.92-10.24h-3.51v10.24H78.9V527.7z M82.06,537.95h4.15
		c0.6,0,1.21-0.06,1.82-0.16c0.6-0.09,1.14-0.28,1.61-0.53c0.48-0.27,0.84-0.64,1.13-1.14c0.29-0.49,0.43-1.14,0.43-1.92
		c0-0.79-0.14-1.43-0.43-1.93c-0.29-0.49-0.65-0.86-1.13-1.13c-0.46-0.27-1.01-0.43-1.61-0.55c-0.61-0.1-1.22-0.14-1.82-0.14h-4.15
		V537.95z"/>
	<polygon class="st0" points="98.97,527.7 113.99,527.7 113.99,530.66 102.13,530.66 102.13,537.58 113.17,537.58 113.17,540.54 
		102.13,540.54 102.13,547.99 114.57,547.99 114.57,550.95 98.97,550.95 	"/>
	<path class="st0" d="M126.33,527.7h2.86l9.95,23.25h-3.68l-2.33-5.74h-11.07l-2.3,5.74h-3.68L126.33,527.7z M131.99,542.44
		l-4.33-10.67h-0.06l-4.4,10.67H131.99z"/>
	<polygon class="st0" points="142.17,527.7 145.33,527.7 145.33,547.99 156,547.99 156,550.95 142.17,550.95 	"/>
	<polygon class="st0" points="168.35,527.7 183.36,527.7 183.36,530.66 171.5,530.66 171.5,537.58 182.54,537.58 182.54,540.54 
		171.5,540.54 171.5,547.99 183.96,547.99 183.96,550.95 168.35,550.95 	"/>
	<path class="st0" d="M189.11,546.09c0.57,0.85,1.3,1.49,2.18,1.9c0.89,0.4,1.81,0.61,2.74,0.61c0.53,0,1.06-0.08,1.62-0.26
		c0.54-0.16,1.04-0.41,1.49-0.73c0.45-0.35,0.81-0.74,1.1-1.22c0.29-0.49,0.42-1.03,0.42-1.67c0-0.9-0.28-1.59-0.84-2.06
		c-0.58-0.47-1.29-0.87-2.13-1.18c-0.83-0.31-1.76-0.63-2.76-0.92c-1-0.29-1.92-0.7-2.76-1.23c-0.84-0.53-1.54-1.24-2.12-2.13
		c-0.57-0.88-0.86-2.07-0.86-3.59c0-0.67,0.14-1.4,0.45-2.16c0.3-0.78,0.76-1.47,1.39-2.1c0.63-0.63,1.45-1.16,2.45-1.6
		c1-0.42,2.2-0.64,3.6-0.64c1.27,0,2.48,0.18,3.65,0.53c1.15,0.34,2.17,1.06,3.05,2.13l-2.56,2.33c-0.4-0.6-0.96-1.1-1.67-1.47
		c-0.74-0.37-1.54-0.55-2.46-0.55c-0.88,0-1.61,0.11-2.19,0.34c-0.58,0.22-1.04,0.53-1.4,0.89c-0.34,0.35-0.59,0.76-0.73,1.18
		c-0.14,0.41-0.22,0.8-0.22,1.14c0,0.99,0.29,1.74,0.86,2.27c0.57,0.52,1.27,0.94,2.12,1.28c0.84,0.33,1.76,0.63,2.75,0.89
		c1,0.27,1.93,0.63,2.76,1.1c0.85,0.48,1.55,1.12,2.12,1.91c0.57,0.8,0.86,1.9,0.86,3.3c0,1.12-0.21,2.13-0.64,3.02
		c-0.43,0.9-1,1.66-1.73,2.26c-0.72,0.62-1.57,1.08-2.56,1.42c-0.99,0.33-2.03,0.49-3.15,0.49c-1.49,0-2.91-0.25-4.25-0.78
		c-1.33-0.52-2.39-1.33-3.18-2.43L189.11,546.09z"/>
	<polygon class="st0" points="211.55,530.65 204.06,530.65 204.06,527.69 222.19,527.69 222.19,530.65 214.71,530.65 214.71,550.95 
		211.55,550.95 	"/>
	<path class="st0" d="M229.82,527.7h2.86l9.95,23.25h-3.68l-2.33-5.74h-11.07l-2.3,5.74h-3.68L229.82,527.7z M235.47,542.44
		l-4.33-10.67h-0.06l-4.4,10.67H235.47z"/>
	<polygon class="st0" points="247.49,530.65 240,530.65 240,527.69 258.14,527.69 258.14,530.65 250.64,530.65 250.64,550.95 
		247.49,550.95 	"/>
	<polygon class="st0" points="261.48,527.7 276.5,527.7 276.5,530.66 264.64,530.66 264.64,537.58 275.68,537.58 275.68,540.54 
		264.64,540.54 264.64,547.99 277.09,547.99 277.09,550.95 261.48,550.95 	"/>
	<path class="st0" d="M290.17,527.7h8.1c1.65,0,3.1,0.19,4.34,0.55c1.23,0.38,2.31,0.88,3.21,1.5c0.91,0.62,1.66,1.34,2.27,2.15
		c0.59,0.81,1.07,1.64,1.43,2.49c0.35,0.87,0.6,1.72,0.75,2.57c0.16,0.84,0.24,1.63,0.24,2.36c0,1.5-0.29,2.93-0.82,4.31
		c-0.55,1.39-1.37,2.63-2.44,3.71c-1.08,1.08-2.41,1.96-4,2.61c-1.57,0.65-3.41,0.99-5.5,0.99h-7.58V527.7z M293.31,547.99h3.97
		c1.34,0,2.62-0.18,3.8-0.54c1.2-0.36,2.24-0.9,3.14-1.62c0.89-0.73,1.61-1.63,2.14-2.7c0.53-1.09,0.79-2.35,0.79-3.8
		c0-0.76-0.12-1.62-0.37-2.61c-0.25-0.99-0.7-1.94-1.35-2.84c-0.68-0.9-1.61-1.66-2.79-2.28c-1.18-0.62-2.72-0.93-4.6-0.93h-4.74
		V547.99z"/>
	<polygon class="st0" points="315.03,527.7 330.03,527.7 330.03,530.66 318.19,530.66 318.19,537.58 329.22,537.58 329.22,540.54 
		318.19,540.54 318.19,547.99 330.63,547.99 330.63,550.95 315.03,550.95 	"/>
	<polygon class="st0" points="331.91,527.7 335.56,527.7 342.39,546.62 342.46,546.62 349.56,527.7 353.01,527.7 343.84,550.95 
		340.89,550.95 	"/>
	<polygon class="st0" points="355.8,527.7 370.8,527.7 370.8,530.66 358.95,530.66 358.95,537.58 369.98,537.58 369.98,540.54 
		358.95,540.54 358.95,547.99 371.41,547.99 371.41,550.95 355.8,550.95 	"/>
	<polygon class="st0" points="375.87,527.7 379.03,527.7 379.03,547.99 389.7,547.99 389.7,550.95 375.87,550.95 	"/>
	<path class="st0" d="M403.6,551.55c-1.77,0-3.41-0.32-4.89-0.93c-1.5-0.63-2.77-1.49-3.84-2.59c-1.06-1.08-1.9-2.38-2.49-3.87
		c-0.59-1.48-0.91-3.1-0.91-4.83c0-1.73,0.31-3.33,0.91-4.82c0.6-1.49,1.43-2.78,2.49-3.88c1.07-1.1,2.34-1.96,3.84-2.58
		c1.47-0.62,3.12-0.93,4.89-0.93c1.77,0,3.41,0.31,4.89,0.93c1.5,0.62,2.76,1.49,3.84,2.58c1.06,1.1,1.9,2.39,2.5,3.88
		c0.59,1.49,0.9,3.09,0.9,4.82c0,1.73-0.31,3.35-0.9,4.83c-0.61,1.49-1.44,2.78-2.5,3.87c-1.08,1.11-2.34,1.96-3.84,2.59
		C407.01,551.23,405.37,551.55,403.6,551.55 M403.6,548.59c1.33,0,2.54-0.24,3.61-0.73c1.08-0.5,2-1.16,2.76-2
		c0.78-0.83,1.35-1.8,1.77-2.95c0.41-1.12,0.62-2.31,0.62-3.59c0-1.26-0.21-2.47-0.62-3.59c-0.42-1.13-1-2.12-1.77-2.95
		c-0.77-0.83-1.69-1.49-2.76-1.97c-1.07-0.5-2.28-0.76-3.61-0.76c-1.33,0-2.54,0.26-3.61,0.76c-1.08,0.48-2,1.14-2.76,1.97
		c-0.77,0.83-1.35,1.82-1.77,2.95c-0.41,1.12-0.62,2.33-0.62,3.59c0,1.28,0.21,2.47,0.62,3.59c0.42,1.14,1,2.12,1.77,2.95
		c0.77,0.83,1.69,1.5,2.76,2C401.06,548.34,402.27,548.59,403.6,548.59"/>
	<path class="st0" d="M420.26,527.7h8.17c1.49,0,2.72,0.2,3.68,0.61c0.98,0.4,1.73,0.92,2.28,1.54c0.57,0.62,0.96,1.33,1.17,2.1
		c0.21,0.76,0.32,1.53,0.32,2.25c0,0.72-0.11,1.47-0.32,2.24c-0.22,0.8-0.61,1.48-1.17,2.12c-0.55,0.61-1.31,1.13-2.28,1.53
		c-0.96,0.41-2.19,0.62-3.68,0.62h-5.02v10.24h-3.15V527.7z M423.41,537.95h4.13c0.62,0,1.22-0.06,1.83-0.16
		c0.6-0.09,1.14-0.28,1.62-0.53c0.46-0.27,0.84-0.64,1.12-1.14c0.3-0.49,0.43-1.14,0.43-1.92c0-0.79-0.13-1.43-0.43-1.93
		c-0.28-0.49-0.65-0.86-1.12-1.13c-0.48-0.27-1.02-0.43-1.62-0.55c-0.61-0.1-1.2-0.14-1.83-0.14h-4.13V537.95z"/>
	<polygon class="st0" points="439.5,527.7 444.2,527.7 451.59,545.3 451.73,545.3 459.05,527.7 463.75,527.7 463.75,550.95 
		460.59,550.95 460.59,531.83 460.52,531.83 452.67,550.95 450.57,550.95 442.72,531.83 442.66,531.83 442.66,550.95 439.5,550.95 	
		"/>
	<polygon class="st0" points="469.49,527.7 484.5,527.7 484.5,530.66 472.65,530.66 472.65,537.58 483.69,537.58 483.69,540.54 
		472.65,540.54 472.65,547.99 485.1,547.99 485.1,550.95 469.49,550.95 	"/>
	<polygon class="st0" points="489.57,527.7 493.7,527.7 506.52,546.82 506.58,546.82 506.58,527.7 509.73,527.7 509.73,550.95 
		505.73,550.95 492.78,531.83 492.72,531.83 492.72,550.95 489.57,550.95 	"/>
	<polygon class="st0" points="520.58,530.65 513.08,530.65 513.08,527.69 531.22,527.69 531.22,530.65 523.73,530.65 523.73,550.95 
		520.58,550.95 	"/>
	<polygon class="st0" points="543.7,527.7 558.32,527.7 558.32,530.66 546.86,530.66 546.86,537.95 557.53,537.95 557.53,540.9 
		546.86,540.9 546.86,550.95 543.7,550.95 	"/>
	<path class="st0" d="M565.29,527.7v14.25c0,0.73,0.1,1.47,0.29,2.25c0.2,0.79,0.52,1.49,0.98,2.16c0.46,0.64,1.07,1.18,1.81,1.61
		c0.75,0.41,1.67,0.62,2.76,0.62c1.1,0,2.02-0.21,2.76-0.62c0.74-0.42,1.34-0.96,1.8-1.61c0.46-0.67,0.8-1.37,1-2.16
		c0.2-0.78,0.3-1.52,0.3-2.25V527.7h3.15v14.74c0,1.37-0.23,2.59-0.7,3.7c-0.45,1.11-1.07,2.07-1.89,2.87
		c-0.81,0.82-1.78,1.44-2.85,1.88c-1.1,0.43-2.29,0.64-3.56,0.64c-1.26,0-2.45-0.21-3.55-0.64c-1.1-0.45-2.05-1.06-2.86-1.88
		c-0.81-0.8-1.45-1.76-1.9-2.87c-0.46-1.11-0.69-2.34-0.69-3.7V527.7H565.29z"/>
	<polygon class="st0" points="585.69,527.7 589.83,527.7 602.63,546.82 602.7,546.82 602.7,527.7 605.86,527.7 605.86,550.95 
		601.84,550.95 588.91,531.83 588.84,531.83 588.84,550.95 585.69,550.95 	"/>
	<path class="st0" d="M611.32,527.7h8.1c1.65,0,3.1,0.19,4.33,0.55c1.23,0.38,2.32,0.88,3.23,1.5c0.91,0.62,1.66,1.34,2.26,2.15
		c0.61,0.81,1.08,1.64,1.43,2.49c0.35,0.87,0.61,1.72,0.76,2.57c0.15,0.84,0.23,1.63,0.23,2.36c0,1.5-0.28,2.93-0.82,4.31
		c-0.54,1.39-1.35,2.63-2.43,3.71c-1.08,1.08-2.41,1.96-4,2.61c-1.59,0.65-3.41,0.99-5.5,0.99h-7.58V527.7z M614.46,547.99h3.97
		c1.34,0,2.62-0.18,3.8-0.54c1.19-0.36,2.24-0.9,3.14-1.62c0.9-0.73,1.61-1.63,2.14-2.7c0.52-1.09,0.79-2.35,0.79-3.8
		c0-0.76-0.12-1.62-0.36-2.61c-0.25-0.99-0.7-1.94-1.37-2.84c-0.67-0.9-1.6-1.66-2.77-2.28c-1.19-0.62-2.72-0.93-4.6-0.93h-4.74
		V547.99z"/>
</g>
</svg>
