<svg width="32" height="32" viewBox="0 0 32 32" fill="none" xmlns="http://www.w3.org/2000/svg">
<g clip-path="url(#clip0_505_11631)">
<path d="M22.0806 9.73325L20.6633 8.31607C20.3856 8.03825 20.0162 7.88525 19.6233 7.88525C19.2304 7.88525 18.8611 8.03825 18.5833 8.31607L8.54581 18.3538L3.928 13.7358C3.65025 13.458 3.28087 13.305 2.888 13.305C2.49519 13.305 2.12581 13.458 1.84806 13.7358L0.430813 15.1529C0.153 15.4308 0 15.8001 0 16.193C0 16.5859 0.153 16.9552 0.430813 17.233L6.44306 23.245C7.02281 23.8247 7.78431 24.1146 8.54587 24.1146C9.30737 24.1146 10.0689 23.8248 10.6486 23.245L22.0806 11.8133C22.6539 11.2398 22.654 10.3068 22.0806 9.73325ZM21.4176 11.1503L9.98569 22.5821C9.19175 23.3761 7.89988 23.3761 7.10594 22.5821L1.09369 16.5701C0.992938 16.4693 0.9375 16.3354 0.9375 16.193C0.9375 16.0506 0.992938 15.9167 1.09369 15.8159L2.51094 14.3986C2.61162 14.2979 2.74556 14.2424 2.888 14.2424C3.03044 14.2424 3.16431 14.2979 3.26506 14.3986L8.21431 19.3481C8.30219 19.436 8.42144 19.4854 8.54575 19.4854C8.67006 19.4854 8.78931 19.436 8.87719 19.3481L19.2461 8.97894C19.3468 8.87819 19.4808 8.82275 19.6232 8.82275C19.7656 8.82275 19.8995 8.87819 20.0002 8.97894L21.4175 10.3962C21.6256 10.6041 21.6255 10.9424 21.4176 11.1503Z" fill="currentColor"/>
<path d="M31.5692 9.73329L30.1519 8.31604C29.5784 7.7426 28.6454 7.74267 28.0719 8.31604L18.0344 18.3538L17.8532 18.1725C17.6701 17.9895 17.3733 17.9894 17.1903 18.1725C17.0072 18.3556 17.0072 18.6524 17.1903 18.8355L17.703 19.3482C17.7909 19.4361 17.9101 19.4855 18.0344 19.4855C18.1588 19.4855 18.278 19.4361 18.3659 19.3482L28.7348 8.97904C28.9428 8.77117 29.2811 8.7711 29.489 8.97904L30.9063 10.3963C31.007 10.497 31.0624 10.6309 31.0624 10.7734C31.0624 10.9158 31.007 11.0497 30.9063 11.1504L19.4743 22.5821C18.6804 23.376 17.3886 23.376 16.5946 22.5821L14.9919 20.9794C14.8088 20.7963 14.512 20.7964 14.329 20.9794C14.1459 21.1624 14.1459 21.4592 14.329 21.6423L15.9318 23.245C16.5115 23.8247 17.273 24.1146 18.0345 24.1146C18.796 24.1146 19.5575 23.8247 20.1373 23.245L31.5693 11.8132C31.8471 11.5355 32.0001 11.1661 32.0001 10.7732C32 10.3804 31.847 10.011 31.5692 9.73329Z" fill="currentColor"/>
</g>
<defs>
<clipPath id="clip0_505_11631">
<rect width="32" height="32" fill="white"/>
</clipPath>
</defs>
</svg>
