<svg width="32" height="32" viewBox="0 0 32 32" fill="none" xmlns="http://www.w3.org/2000/svg">
<g clip-path="url(#clip0_505_11247)">
<path d="M27.3326 4.66261C21.367 -1.55408 10.6343 -1.55439 4.66895 4.66279C-1.36144 10.455 -1.56927 20.7767 4.19137 26.8267C4.36672 27.0178 4.66369 27.0304 4.85475 26.8552C5.0458 26.6798 5.05851 26.3829 4.88323 26.1918C-3.95665 16.5933 2.94714 0.874053 16.0009 0.907919C24.1097 0.740715 31.2553 7.885 31.0872 15.9946C31.1474 28.5091 16.4357 35.6375 6.65425 27.8374C6.45086 27.6766 6.15557 27.7111 5.99475 27.9146C5.834 28.1181 5.86855 28.4133 6.072 28.5741C12.2011 33.5939 21.829 33.0299 27.3325 27.3262C33.5493 21.3615 33.5496 10.6274 27.3326 4.66261Z" fill="currentColor"/>
<path d="M16.0007 27.9511C13.324 27.9511 10.9103 26.9899 10.0176 26.384C9.80316 26.2385 9.51113 26.2943 9.36552 26.5088C9.21991 26.7234 9.27575 27.0153 9.49035 27.1609C17.7176 32.09 28.9725 26.0216 28.8963 15.9944C28.8964 8.88387 23.1114 3.09888 16.0008 3.09888C15.7415 3.09888 15.5313 3.30909 15.5313 3.56838C15.5313 3.82767 15.7415 4.03788 16.0008 4.03788C31.8424 4.63959 31.8355 27.3529 16.0007 27.9511Z" fill="currentColor"/>
<path d="M8.67504 15.9981C8.53501 16.5208 8.68462 17.0504 9.08545 17.4511L12.7245 21.0902C13.3267 21.6924 14.3489 21.6937 14.9525 21.0902L20.2462 15.7966C20.4295 15.6133 20.4295 15.316 20.2462 15.1327C20.0628 14.9493 19.7655 14.9493 19.5822 15.1327L14.2886 20.4263C14.043 20.6718 13.6341 20.6718 13.3885 20.4263L9.74945 16.7872C9.20301 16.2408 10.0933 15.331 10.6494 15.8871L13.5065 18.7442C13.6899 18.9276 13.9872 18.9276 14.1704 18.7442L21.3522 11.5625C21.6139 11.3008 21.9812 11.3438 22.2326 11.5953C22.3067 11.6694 22.6556 12.0591 22.2522 12.4625L21.3375 13.3772C21.1541 13.5606 21.1541 13.8579 21.3375 14.0412C21.5208 14.2245 21.8181 14.2245 22.0014 14.0412L22.9161 13.1265C24.3349 11.6544 22.1573 9.49461 20.6882 10.8985L13.8384 17.7482L11.3133 15.2231C10.4479 14.3578 8.98185 14.8531 8.67504 15.9981Z" fill="currentColor"/>
<path d="M12.7967 3.48657C12.1925 3.48657 12.1915 4.42557 12.7967 4.42557C13.4009 4.42557 13.4019 3.48657 12.7967 3.48657Z" fill="currentColor"/>
<path d="M9.79014 4.72607C9.18592 4.72607 9.18492 5.66507 9.79014 5.66507C10.3944 5.66507 10.3954 4.72607 9.79014 4.72607Z" fill="currentColor"/>
<path d="M7.20683 7.64042C7.81104 7.64042 7.81204 6.70142 7.20683 6.70142C6.60261 6.70142 6.60161 7.64042 7.20683 7.64042Z" fill="currentColor"/>
<path d="M5.22278 9.27808C4.61856 9.27808 4.61756 10.2171 5.22278 10.2171C5.82699 10.2171 5.828 9.27808 5.22278 9.27808Z" fill="currentColor"/>
<path d="M3.97322 12.2805C3.36901 12.2805 3.368 13.2195 3.97322 13.2195C4.57744 13.2195 4.57844 12.2805 3.97322 12.2805Z" fill="currentColor"/>
<path d="M3.54334 15.5042C2.93913 15.5042 2.93813 16.4432 3.54334 16.4432C4.14756 16.4432 4.14856 15.5042 3.54334 15.5042Z" fill="currentColor"/>
<path d="M3.96245 19.668C4.56666 19.668 4.56767 18.729 3.96245 18.729C3.35823 18.729 3.35723 19.668 3.96245 19.668Z" fill="currentColor"/>
<path d="M5.20194 21.7356C4.59772 21.7356 4.59672 22.6746 5.20194 22.6746C5.80609 22.6746 5.80709 21.7356 5.20194 21.7356Z" fill="currentColor"/>
<path d="M7.17728 25.2578C7.78149 25.2578 7.78249 24.3188 7.17728 24.3188C6.57312 24.3188 6.57212 25.2578 7.17728 25.2578Z" fill="currentColor"/>
</g>
<defs>
<clipPath id="clip0_505_11247">
<rect width="32" height="32" fill="white"/>
</clipPath>
</defs>
</svg>
