<svg width="30" height="28" viewBox="0 0 30 28" fill="none" xmlns="http://www.w3.org/2000/svg">

<path d="M20.5503 9.28466C20.7238 9.11833 20.7297 8.84271 20.5634 8.66919C19.096 7.13809 17.1202 6.29483 15.0001 6.29483C10.7514 6.29483 7.29486 9.75138 7.29486 14.0001C7.29486 18.2487 10.7514 21.7052 15 21.7052C19.2487 21.7052 22.7053 18.2487 22.7053 14C22.7053 12.7504 22.3991 11.5091 21.8199 10.4104C21.7077 10.1978 21.4445 10.1162 21.2318 10.2284C21.0191 10.3406 20.9376 10.6038 21.0497 10.8165C21.5632 11.7904 21.8347 12.8912 21.8347 13.9999C21.8347 17.7685 18.7686 20.8346 15 20.8346C11.2314 20.8346 8.1654 17.7686 8.1654 14C8.1654 10.2314 11.2314 7.16537 15 7.16537C16.8806 7.16537 18.6331 7.91333 19.9348 9.27154C20.1012 9.44512 20.3768 9.45093 20.5503 9.28466Z" fill="currentColor"/>
<path d="M5.59757 13.995C5.45051 13.7296 5.17054 13.5647 4.86707 13.5647H4.30471C4.53406 7.86366 9.24372 3.29595 15 3.29595C17.6949 3.29595 20.2717 4.30491 22.2553 6.13674C22.6118 6.46633 23.1611 6.45443 23.5058 6.10987L24.1733 5.4424C24.3484 5.26725 24.4423 5.03436 24.4377 4.7866C24.4332 4.54187 24.3277 4.30601 24.1482 4.13939C21.654 1.82405 18.4051 0.54895 15 0.54895C11.9467 0.54895 8.95656 1.60044 6.58046 3.50964C6.39306 3.66024 6.36323 3.93423 6.51384 4.12163C6.66438 4.30903 6.93831 4.33868 7.12582 4.18825C9.38004 2.37696 12.1028 1.41954 15 1.41954C18.1848 1.41954 21.2233 2.61206 23.5559 4.77737C23.5587 4.77993 23.5669 4.78765 23.5672 4.80268C23.5675 4.81695 23.5601 4.82438 23.5576 4.82676L22.8902 5.49423C22.8779 5.50659 22.8579 5.50804 22.8461 5.49736C20.701 3.51637 17.9145 2.42536 15 2.42536C8.6178 2.42536 3.42541 7.61776 3.42541 14C3.42541 14.2404 3.62029 14.4353 3.86067 14.4353H4.80294L2.92247 17.4447L1.042 14.4353H1.98432C2.22476 14.4353 2.41959 14.2404 2.41959 14C2.41959 10.8597 3.58303 7.85263 5.69553 5.53271C5.85739 5.35494 5.84457 5.07962 5.6668 4.91782C5.48904 4.7559 5.21372 4.76878 5.05192 4.94655C2.89078 7.31986 1.65857 10.3653 1.55602 13.5647H0.977983C0.674514 13.5647 0.394666 13.7296 0.247545 13.995C0.100483 14.2604 0.109014 14.5852 0.269831 14.8424L2.2142 17.9539C2.36788 18.1998 2.63264 18.3465 2.92253 18.3465C3.21242 18.3465 3.47723 18.1998 3.63097 17.9539L5.57522 14.8425C5.73604 14.5852 5.74457 14.2605 5.59757 13.995Z" fill="currentColor"/>
<path d="M29.7303 13.1576L27.786 10.0461C27.6323 9.80025 27.3675 9.65353 27.0776 9.65353C26.7878 9.65353 26.5229 9.80025 26.3692 10.0461L24.425 13.1575C24.264 13.4148 24.2555 13.7396 24.4025 14.005C24.5496 14.2704 24.8295 14.4353 25.133 14.4353H25.6954C25.6121 16.5199 24.9308 18.5085 23.7122 20.2116C23.5723 20.4071 23.6174 20.679 23.8129 20.8189C24.0086 20.9589 24.2804 20.9136 24.4202 20.7182C25.8296 18.7483 26.5746 16.4251 26.5746 13.9999C26.5746 13.7595 26.3797 13.5647 26.1393 13.5647H25.1971L27.0775 10.5553L28.9581 13.5647H28.0157C27.7753 13.5647 27.5805 13.7596 27.5805 13.9999C27.5805 20.9368 21.9369 26.5804 15 26.5804C11.8153 26.5804 8.77678 25.3879 6.44415 23.2226C6.44137 23.22 6.43313 23.2123 6.43284 23.1973C6.43255 23.183 6.43997 23.1756 6.44241 23.1732L7.10988 22.5057C7.12218 22.4934 7.14226 22.492 7.15393 22.5026C9.2991 24.4836 12.0856 25.5746 15.0001 25.5746C18.0161 25.5746 20.8733 24.4167 23.0452 22.314C23.2179 22.1468 23.2224 21.8712 23.0552 21.6984C22.8879 21.5257 22.6124 21.5213 22.4397 21.6885C20.431 23.6331 17.7889 24.7041 15.0001 24.7041C12.3052 24.7041 9.72845 23.6951 7.74479 21.8633C7.38822 21.5337 6.83897 21.5455 6.4943 21.8901L5.82683 22.5576C5.65173 22.7328 5.55783 22.9656 5.56242 23.2134C5.56694 23.4581 5.67245 23.694 5.8519 23.8606C8.3461 26.176 11.595 27.451 15.0001 27.451C18.5928 27.451 21.9706 26.0518 24.5113 23.5112C26.9491 21.0733 28.336 17.8649 28.4442 14.4353H29.0222C29.3257 14.4353 29.6055 14.2704 29.7526 14.005C29.8997 13.7396 29.8911 13.4148 29.7303 13.1576Z" fill="currentColor"/>
</svg>
