<svg width="32" height="32" viewBox="0 0 32 32" fill="none" xmlns="http://www.w3.org/2000/svg">
<g clip-path="url(#clip0_505_11479)">
<path d="M24.2898 12.5019L24.1199 12.334L24.0884 12.3078C21.6238 10.2619 20.4253 7.19261 20.8003 3.88671L21.2412 0L17.4595 2.04052C13.4404 4.20898 10.7944 8.2263 10.3491 12.7182L6.10573 11.4792L5.77444 12.2358C4.43948 15.2832 3.77981 18.2085 3.81375 20.9306C3.85085 23.8999 5.04104 26.684 7.16506 28.7705C9.28493 30.853 12.0896 31.9999 15.062 31.9999H16.8806C23.0486 31.9999 28.0945 27.03 28.1289 20.9206C28.1482 17.478 26.8921 14.7238 24.2898 12.5019ZM15.5164 30.1205C13.221 30.1205 11.3301 28.2622 11.3015 25.9777C11.2898 25.0417 11.4768 24.0354 11.8582 22.9775L14.5252 23.7561L14.5364 22.5146C14.5527 20.7124 15.4624 19.0481 16.9419 18.0576C16.9375 19.8908 17.7007 21.5664 19.0967 22.7414L19.1516 22.7956L19.2041 22.8437C20.2048 23.6936 20.6477 24.6616 20.6404 25.9824C20.6274 28.2643 18.7368 30.1205 16.4258 30.1205H15.5164ZM21.8525 28.7011C22.2737 27.8869 22.5141 26.9667 22.5195 25.9931C22.53 24.1306 21.8525 22.6394 20.4485 21.435L20.3611 21.3486L20.3296 21.3227C19.2053 20.3891 18.6807 19.041 18.8523 17.5266L19.1741 14.6897L16.4919 16.1369C14.512 17.2053 13.1555 19.1135 12.7695 21.2858L10.7737 20.7031L10.4424 21.4594C9.74782 23.0449 9.40455 24.573 9.42262 26.0014C9.43434 26.9484 9.66286 27.8608 10.0833 28.6816C7.4839 27.0446 5.73391 24.1716 5.69289 20.9072C5.66506 18.6772 6.16408 16.2729 7.17678 13.7497L12.1511 15.2021L12.1624 13.9607C12.2014 9.66722 14.573 5.73339 18.3518 3.69457L18.9687 3.36157L18.9331 3.67504C18.4871 7.6079 19.9165 11.269 22.8562 13.7273L22.9934 13.863L23.0459 13.9111C25.2478 15.781 26.2659 18.0051 26.2497 20.9101C26.2312 24.1862 24.4753 27.0678 21.8525 28.7011Z" fill="currentColor"/>
</g>
<defs>
<clipPath id="clip0_505_11479">
<rect width="32" height="32" fill="white"/>
</clipPath>
</defs>
</svg>
