<svg xmlns="http://www.w3.org/2000/svg" xmlns:xlink="http://www.w3.org/1999/xlink" width="28px" height="28px" viewBox="0 0 28 28" version="1.1">
<g id="surface1">
<path fill='currentColor' style=" stroke:none;fill-rule:nonzero;fill-opacity:1;" d="M 13.988281 28 C 10.429688 28 7.054688 26.671875 4.441406 24.230469 C 1.710938 21.675781 0.136719 18.210938 0.0078125 14.476562 C -0.117188 10.738281 1.21875 7.175781 3.769531 4.441406 C 6.324219 1.710938 9.789062 0.136719 13.523438 0.0078125 C 17.261719 -0.117188 20.824219 1.21875 23.558594 3.769531 C 26.289062 6.324219 27.863281 9.789062 27.992188 13.523438 C 28.117188 17.261719 26.78125 20.824219 24.230469 23.558594 C 21.675781 26.289062 18.210938 27.863281 14.476562 27.992188 C 14.3125 27.996094 14.148438 28 13.988281 28 Z M 14.011719 0.820312 C 13.859375 0.820312 13.707031 0.824219 13.554688 0.828125 C 10.035156 0.949219 6.773438 2.429688 4.371094 5.003906 C 1.964844 7.574219 0.707031 10.929688 0.828125 14.449219 C 0.949219 17.964844 2.429688 21.226562 5.003906 23.628906 C 7.460938 25.929688 10.636719 27.179688 13.988281 27.179688 C 14.140625 27.179688 14.292969 27.175781 14.449219 27.171875 C 17.964844 27.050781 21.226562 25.570312 23.628906 22.996094 C 26.035156 20.425781 27.292969 17.070312 27.171875 13.550781 C 27.050781 10.035156 25.570312 6.773438 22.996094 4.371094 C 20.539062 2.070312 17.363281 0.820312 14.011719 0.820312 Z M 13.996094 26.070312 C 13.980469 26.070312 13.960938 26.070312 13.941406 26.070312 C 10.894531 26.054688 7.988281 24.902344 5.761719 22.820312 C 3.53125 20.738281 2.183594 17.917969 1.960938 14.875 C 1.742188 11.855469 2.65625 8.886719 4.527344 6.515625 C 4.601562 6.425781 4.707031 6.371094 4.820312 6.363281 C 4.933594 6.355469 5.046875 6.394531 5.128906 6.472656 L 17.332031 17.871094 C 17.496094 18.027344 17.507812 18.285156 17.351562 18.453125 C 17.199219 18.617188 16.9375 18.625 16.773438 18.472656 L 4.902344 7.382812 C 3.339844 9.527344 2.585938 12.148438 2.78125 14.816406 C 2.984375 17.652344 4.242188 20.28125 6.320312 22.21875 C 8.398438 24.160156 11.105469 25.238281 13.945312 25.25 C 13.960938 25.25 13.980469 25.25 13.996094 25.25 C 16.652344 25.25 19.199219 24.324219 21.21875 22.628906 L 17.980469 19.601562 C 17.8125 19.445312 17.804688 19.1875 17.960938 19.019531 C 18.113281 18.855469 18.375 18.847656 18.539062 19 L 22.113281 22.339844 C 22.195312 22.417969 22.242188 22.527344 22.242188 22.640625 C 22.242188 22.753906 22.191406 22.863281 22.109375 22.941406 C 19.886719 24.960938 17.007812 26.070312 13.996094 26.070312 Z M 23.148438 21.636719 C 23.046875 21.636719 22.945312 21.597656 22.871094 21.527344 L 5.886719 5.660156 C 5.804688 5.582031 5.757812 5.472656 5.757812 5.359375 C 5.757812 5.246094 5.808594 5.136719 5.890625 5.058594 C 10.375 0.984375 17.230469 0.882812 21.835938 4.820312 C 22.007812 4.96875 22.03125 5.226562 21.882812 5.398438 C 21.734375 5.570312 21.476562 5.589844 21.304688 5.445312 C 17.125 1.871094 10.957031 1.867188 6.78125 5.371094 L 23.097656 20.617188 C 24.554688 18.621094 25.3125 16.175781 25.246094 13.691406 C 25.171875 11.054688 24.175781 8.523438 22.4375 6.558594 C 22.285156 6.386719 22.300781 6.128906 22.472656 5.976562 C 22.640625 5.828125 22.902344 5.84375 23.050781 6.011719 C 24.917969 8.125 25.988281 10.839844 26.066406 13.667969 C 26.144531 16.496094 25.222656 19.269531 23.472656 21.484375 C 23.398438 21.574219 23.292969 21.628906 23.179688 21.636719 C 23.167969 21.636719 23.160156 21.636719 23.148438 21.636719 Z M 23.148438 21.636719 "/>
</g>
</svg>
