<?xml version="1.0" encoding="UTF-8"?>
<svg xmlns="http://www.w3.org/2000/svg" xmlns:xlink="http://www.w3.org/1999/xlink" width="28px" height="34px" viewBox="0 0 28 33" version="1.1">
<g id="surface1">
<path fill='currentColor' style=" stroke:none;fill-rule:nonzero;fill-opacity:1;" d="M 9.722656 28.398438 C 6.402344 27.410156 4.171875 24.503906 4.171875 21.160156 C 4.171875 19.539062 4.703125 17.976562 5.710938 16.671875 C 5.730469 16.644531 5.757812 16.613281 5.773438 16.578125 C 5.941406 16.257812 5.800781 15.871094 5.46875 15.710938 C 5.171875 15.5625 4.808594 15.65625 4.617188 15.910156 C 3.441406 17.445312 2.820312 19.257812 2.820312 21.160156 C 2.820312 23.089844 3.457031 24.929688 4.660156 26.472656 C 5.820312 27.960938 7.476562 29.085938 9.328125 29.632812 C 9.390625 29.652344 9.464844 29.664062 9.527344 29.664062 C 9.8125 29.664062 10.078125 29.484375 10.171875 29.210938 C 10.28125 28.863281 10.078125 28.503906 9.722656 28.398438 Z M 9.722656 28.398438 "/>
<path fill='currentColor' style=" stroke:none;fill-rule:nonzero;fill-opacity:1;" d="M 27.027344 15.097656 C 27.027344 13.871094 26.621094 12.703125 25.871094 11.714844 L 21.597656 5.636719 C 21.46875 5.457031 21.257812 5.355469 21.035156 5.355469 C 20.8125 5.355469 20.601562 5.457031 20.46875 5.636719 L 18.671875 8.199219 L 13.109375 0.289062 C 12.984375 0.105469 12.773438 0 12.546875 0 C 12.324219 0 12.117188 0.105469 11.992188 0.289062 L 2.4375 13.867188 C 0.839844 15.941406 0 18.398438 0 20.980469 C 0 27.605469 5.628906 33 12.546875 33 C 19.46875 33 25.097656 27.605469 25.097656 20.980469 C 25.097656 20.453125 25.0625 19.925781 24.996094 19.40625 C 26.234375 18.351562 27.027344 16.808594 27.027344 15.097656 Z M 21.035156 7.160156 L 24.75 12.429688 C 24.753906 12.445312 24.761719 12.453125 24.769531 12.464844 C 25.359375 13.230469 25.671875 14.140625 25.671875 15.097656 C 25.671875 17.546875 23.59375 19.542969 21.035156 19.542969 C 18.472656 19.542969 16.394531 17.546875 16.394531 15.097656 C 16.394531 14.140625 16.710938 13.230469 17.296875 12.464844 C 17.304688 12.457031 17.316406 12.445312 17.320312 12.429688 L 19.234375 9.714844 C 19.234375 9.710938 19.238281 9.707031 19.246094 9.703125 Z M 23.75 20.980469 C 23.75 26.898438 18.71875 31.707031 12.546875 31.707031 C 6.375 31.707031 1.347656 26.898438 1.347656 20.980469 C 1.347656 18.675781 2.101562 16.46875 3.535156 14.617188 C 3.539062 14.609375 3.550781 14.597656 3.558594 14.582031 L 12.546875 1.804688 L 17.863281 9.355469 L 16.203125 11.714844 C 15.445312 12.703125 15.042969 13.871094 15.042969 15.097656 C 15.042969 18.261719 17.734375 20.835938 21.035156 20.835938 C 22 20.835938 22.910156 20.613281 23.71875 20.222656 C 23.738281 20.480469 23.75 20.730469 23.75 20.980469 Z M 23.75 20.980469 "/>
<path fill='currentColor' style=" stroke:none;fill-rule:nonzero;fill-opacity:1;" d="M 18.652344 14.941406 C 18.652344 14.625 18.71875 14.324219 18.851562 14.046875 C 19.007812 13.714844 18.851562 13.332031 18.507812 13.191406 C 18.171875 13.050781 17.777344 13.191406 17.621094 13.519531 C 17.40625 13.96875 17.304688 14.449219 17.304688 14.941406 C 17.304688 16.113281 17.914062 17.203125 18.933594 17.859375 C 19.046875 17.933594 19.179688 17.964844 19.308594 17.964844 C 19.527344 17.964844 19.738281 17.867188 19.871094 17.675781 C 20.074219 17.386719 20 16.980469 19.683594 16.789062 C 19.042969 16.371094 18.652344 15.683594 18.652344 14.941406 Z M 18.652344 14.941406 "/>
<path fill='currentColor' style=" stroke:none;fill-rule:nonzero;fill-opacity:1;" d="M 12.234375 29.296875 C 12.066406 28.878906 11.449219 28.761719 11.132812 29.085938 C 10.75 29.4375 10.953125 30.082031 11.472656 30.175781 C 11.992188 30.28125 12.4375 29.761719 12.234375 29.296875 Z M 12.234375 29.296875 "/>
<path fill='currentColor' style=" stroke:none;fill-rule:nonzero;fill-opacity:1;" d="M 20.675781 18.449219 C 21.113281 18.734375 21.734375 18.417969 21.726562 17.90625 C 21.734375 17.402344 21.113281 17.085938 20.675781 17.371094 C 20.285156 17.609375 20.285156 18.214844 20.675781 18.449219 Z M 20.675781 18.449219 "/>
</g>
</svg>
