<?xml version="1.0" encoding="UTF-8"?>
<svg xmlns="http://www.w3.org/2000/svg" xmlns:xlink="http://www.w3.org/1999/xlink" width="28px" height="30px" viewBox="0 0 28 29" version="1.1">
<g id="surface1">
<path fill="currentColor" style=" stroke:none;fill-rule:nonzero;fill-opacity:1;" d="M 24.371094 10.617188 C 25.296875 9.808594 25.867188 8.675781 25.867188 7.417969 C 25.867188 6.175781 25.296875 4.984375 24.289062 4.144531 C 24.125 4 23.855469 4.007812 23.703125 4.160156 C 23.546875 4.316406 23.558594 4.554688 23.726562 4.699219 C 24.5625 5.402344 25.039062 6.386719 25.039062 7.417969 C 25.039062 10.136719 21.90625 11.902344 19.25 10.761719 C 19.148438 10.71875 19.074219 10.628906 19.066406 10.523438 C 19.039062 10.011719 18.789062 8.371094 17.070312 7.226562 C 16.976562 7.167969 16.921875 7.066406 16.941406 6.964844 C 17.257812 4.601562 19.972656 3.089844 22.453125 3.976562 C 22.664062 4.054688 22.902344 3.953125 22.992188 3.761719 C 23.070312 3.566406 22.96875 3.34375 22.757812 3.265625 C 19.859375 2.242188 16.691406 3.90625 16.15625 6.625 C 16.144531 6.683594 16.070312 6.71875 16.011719 6.695312 C 14.832031 6.261719 13.515625 6.265625 12.351562 6.695312 C 12.292969 6.71875 12.21875 6.683594 12.207031 6.628906 C 11.792969 4.542969 9.796875 2.964844 7.394531 2.964844 C 5.296875 2.964844 3.433594 4.171875 2.757812 5.96875 C 2.6875 6.164062 2.800781 6.378906 3.019531 6.449219 C 3.238281 6.523438 3.46875 6.414062 3.542969 6.210938 C 4.113281 4.726562 5.65625 3.71875 7.394531 3.71875 C 9.460938 3.71875 11.175781 5.140625 11.417969 6.964844 C 11.4375 7.066406 11.386719 7.167969 11.296875 7.226562 C 10.125 8.007812 9.386719 9.222656 9.296875 10.523438 C 9.289062 10.625 9.21875 10.71875 9.121094 10.761719 C 6.554688 11.863281 3.453125 10.273438 3.328125 7.570312 C 3.324219 7.363281 3.128906 7.195312 2.898438 7.207031 C 2.667969 7.214844 2.484375 7.394531 2.496094 7.601562 C 2.546875 8.722656 3.054688 9.773438 3.929688 10.566406 C 1.703125 10.90625 0 12.667969 0 14.792969 L 0 21.058594 C 0 21.886719 0.734375 22.554688 1.648438 22.554688 L 6.789062 22.554688 L 6.789062 24.46875 C 6.789062 25.292969 7.527344 25.964844 8.441406 25.964844 L 19.601562 25.960938 C 20.484375 25.949219 21.210938 25.273438 21.210938 24.46875 L 21.210938 22.554688 L 26.351562 22.554688 C 27.265625 22.554688 28 21.886719 28 21.058594 L 28 14.792969 C 28 12.765625 26.449219 11.066406 24.371094 10.617188 Z M 12.28125 7.558594 C 14.828125 6.332031 17.980469 7.871094 18.230469 10.503906 C 18.230469 10.503906 18.222656 10.503906 18.222656 10.503906 L 18.230469 10.503906 C 18.257812 10.78125 18.242188 11.058594 18.21875 11.261719 C 18.210938 11.261719 18.203125 11.261719 18.199219 11.261719 L 18.21875 11.261719 C 18.113281 12.242188 17.464844 13.285156 16.40625 13.910156 C 15.539062 14.429688 14.539062 14.601562 13.59375 14.476562 C 13.117188 14.429688 12.488281 14.230469 11.953125 13.910156 C 9.359375 12.359375 9.558594 8.867188 12.28125 7.558594 Z M 19.570312 25.207031 L 8.441406 25.207031 C 7.992188 25.207031 7.625 24.875 7.625 24.46875 L 7.625 18.195312 C 7.625 17.402344 7.90625 16.660156 8.441406 16.03125 C 8.578125 15.871094 8.550781 15.632812 8.367188 15.5 C 8.183594 15.375 7.921875 15.40625 7.777344 15.566406 C 7.132812 16.332031 6.789062 17.238281 6.789062 18.195312 L 6.789062 21.796875 L 1.648438 21.796875 C 1.195312 21.796875 0.832031 21.46875 0.832031 21.058594 L 0.832031 14.792969 C 0.832031 12.84375 2.570312 11.261719 4.710938 11.261719 L 4.921875 11.261719 C 6.167969 11.929688 7.667969 12.042969 9 11.625 C 9.179688 11.566406 9.371094 11.660156 9.414062 11.828125 C 9.582031 12.496094 9.917969 13.109375 10.378906 13.625 C 10.519531 13.785156 10.433594 14.015625 10.214844 14.078125 C 9.84375 14.171875 9.484375 14.308594 9.152344 14.480469 C 8.949219 14.589844 8.882812 14.820312 9 15 C 9.113281 15.179688 9.371094 15.246094 9.570312 15.136719 C 10.507812 14.644531 11.367188 14.667969 11.636719 14.671875 C 11.695312 14.671875 11.746094 14.683594 11.789062 14.707031 C 13.300781 15.476562 15.125 15.449219 16.558594 14.714844 C 16.613281 14.691406 16.667969 14.671875 16.734375 14.679688 C 18.757812 14.785156 20.375 16.320312 20.375 18.195312 C 20.375 19.460938 20.375 23.199219 20.375 24.46875 C 20.375 24.875 19.996094 25.207031 19.570312 25.207031 Z M 27.167969 21.058594 C 27.167969 21.46875 26.804688 21.796875 26.351562 21.796875 L 21.210938 21.796875 L 21.210938 18.195312 C 21.210938 16.175781 19.65625 14.476562 17.578125 14.027344 C 18.382812 13.324219 18.867188 12.425781 19.023438 11.5 C 20.410156 12.054688 22.0625 11.996094 23.429688 11.269531 C 25.503906 11.335938 27.167969 12.890625 27.167969 14.792969 Z M 27.167969 21.058594 "/>
</g>
</svg>
