<svg width="32" height="32" viewBox="0 0 32 32" fill="none" xmlns="http://www.w3.org/2000/svg">
<g clip-path="url(#clip0_505_11539)">
<path d="M11.9155 8.36753C12.0615 8.58121 12.3531 8.63633 12.567 8.4904L13.9845 7.52287C15.1857 6.70302 15.9028 5.34531 15.9028 3.89099V1.38926C15.9028 1.08589 16.141 0.98552 16.2141 0.962021C16.2871 0.938459 16.539 0.880961 16.7161 1.1272L19.6075 5.14844C20.7384 6.72139 20.3929 8.94038 18.8373 10.0949L17.0779 11.4008C16.4266 11.8842 16.0693 12.656 16.1221 13.4654C16.1749 14.2747 16.6294 14.9936 17.338 15.3884C17.4102 15.4287 17.4885 15.4477 17.5657 15.4477C17.7302 15.4477 17.8898 15.3609 17.9756 15.2069C18.1016 14.9808 18.0204 14.6953 17.7942 14.5694C17.3585 14.3266 17.09 13.902 17.0576 13.4043C17.0251 12.9066 17.2362 12.4508 17.6367 12.1535L19.396 10.8476C20.3519 10.1382 20.9791 9.09981 21.1622 7.92366C21.3453 6.74752 21.0635 5.56756 20.3686 4.60115L17.4772 0.579971C17.1192 0.0818628 16.5106 -0.118506 15.9265 0.0697382C15.3426 0.257857 14.9654 0.77584 14.9654 1.38926V3.89092C14.9654 5.03526 14.4011 6.10348 13.456 6.74858L12.0385 7.71611C11.8246 7.86204 11.7696 8.15366 11.9155 8.36753Z" fill="currentColor"/>
<path d="M23.7158 17.8764C23.4971 17.7381 23.2075 17.8032 23.0691 18.0221C22.9307 18.2409 22.9959 18.5304 23.2147 18.6688C24.2995 19.3549 24.8937 20.5355 24.8044 21.8272C24.7152 23.115 23.9591 24.2025 22.7819 24.7365L15.0437 28.2454C14.2005 28.6277 13.499 29.2473 13.0155 30.0369L12.5195 30.8467C12.3548 31.1156 12.0917 31.0658 12.0149 31.0443C11.9382 31.0226 11.6879 30.9276 11.6879 30.6123V29.9913C11.6879 28.8564 12.1839 27.7841 13.0487 27.0492L15.7464 24.7572C16.3411 24.252 16.6434 23.5164 16.5759 22.739C16.5084 21.9617 16.0839 21.2891 15.4111 20.894L11.3164 18.4887C9.74405 17.5651 8.76845 15.9256 8.70664 14.1032C8.64483 12.2808 9.50712 10.5789 11.0133 9.55097C11.2271 9.40504 11.2821 9.11342 11.1362 8.89956C10.9903 8.68581 10.6986 8.63075 10.4848 8.77668C8.71196 9.98664 7.69699 11.9898 7.76974 14.1349C7.84248 16.2801 8.99088 18.2098 10.8416 19.297L14.9363 21.7023C15.3439 21.9417 15.6012 22.3492 15.642 22.8201C15.6829 23.2911 15.4997 23.7367 15.1395 24.0427L12.4418 26.3347C11.3669 27.248 10.7505 28.5808 10.7505 29.9913V30.6123C10.7505 31.24 11.1564 31.7762 11.7606 31.9465C11.8885 31.9826 12.0174 32 12.1443 32C12.6166 32 13.0605 31.7583 13.3189 31.3363L13.815 30.5265C14.2003 29.8974 14.7591 29.4038 15.431 29.0991L23.169 25.5901C24.6654 24.9116 25.6263 23.5291 25.7396 21.8919C25.8532 20.2509 25.0967 18.7497 23.7158 17.8764Z" fill="currentColor"/>
<path d="M7.74031 5.54251L8.13198 5.68688C8.20123 5.71238 8.2556 5.76669 8.28104 5.83581L8.42541 6.22761C8.59965 6.70047 9.03789 7.00602 9.54181 7.00602C10.0457 7.00602 10.484 6.70047 10.6583 6.22761L10.8026 5.836C10.8281 5.76681 10.8824 5.71244 10.9516 5.68694L11.3433 5.54251C11.8162 5.36832 12.1218 4.93009 12.1218 4.42617C12.1218 3.92225 11.8163 3.48395 11.3434 3.30964L10.9518 3.1654C10.8825 3.1399 10.8282 3.08559 10.8027 3.01647L10.6583 2.62467C10.4841 2.15181 10.0459 1.84619 9.54187 1.84619C9.03795 1.84619 8.59972 2.15174 8.42547 2.6246L8.28116 3.01628C8.25567 3.08546 8.20135 3.13984 8.13236 3.16527L7.74043 3.30971C7.26751 3.48395 6.96196 3.92225 6.96202 4.42623C6.96196 4.93009 7.26751 5.36832 7.74031 5.54251ZM8.06461 4.1893L8.45635 4.04493C8.7834 3.92437 9.0402 3.66763 9.16076 3.34039L9.30507 2.94878C9.36 2.79978 9.48894 2.78366 9.54187 2.78366C9.59481 2.78366 9.7238 2.79978 9.77874 2.9489L9.92311 3.34064C10.0437 3.66769 10.3005 3.9245 10.6276 4.04506L11.0193 4.1893C11.1683 4.24424 11.1844 4.37317 11.1843 4.42611C11.1843 4.47904 11.1683 4.60797 11.0191 4.66291L10.6274 4.80734C10.3003 4.9279 10.0436 5.18464 9.92298 5.51182L9.77868 5.90343C9.72374 6.05249 9.59475 6.06861 9.54181 6.06855C9.48894 6.06855 9.35994 6.05249 9.30501 5.90337L9.16063 5.51169C9.04008 5.18458 8.78333 4.92784 8.45616 4.80728L8.06442 4.66291C7.91549 4.60797 7.89936 4.4791 7.89936 4.42617C7.89943 4.37323 7.91549 4.24424 8.06461 4.1893Z" fill="currentColor"/>
<path d="M22.3982 15.5333L22.0065 15.389C21.9373 15.3635 21.8829 15.3092 21.8575 15.24L21.7131 14.8482C21.5388 14.3754 21.1006 14.0698 20.5967 14.0698C20.0928 14.0698 19.6545 14.3754 19.4802 14.8482L19.3359 15.2398C19.3104 15.309 19.2561 15.3634 19.1869 15.3889L18.7952 15.5333C18.3223 15.7076 18.0167 16.1458 18.0168 16.6497C18.0168 17.1537 18.3223 17.5919 18.7953 17.7661L19.1868 17.9104C19.256 17.9359 19.3104 17.9903 19.3359 18.0594L19.4802 18.4512C19.6545 18.9241 20.0927 19.2297 20.5967 19.2297C21.1006 19.2297 21.5388 18.9241 21.7131 18.4512L21.8574 18.0596C21.8829 17.9904 21.9371 17.9361 22.0062 17.9106L22.3981 17.7661C22.871 17.5919 23.1765 17.1537 23.1765 16.6497C23.1765 16.1458 22.8711 15.7076 22.3982 15.5333ZM22.074 16.8866L21.6823 17.0309C21.6823 17.0309 21.6823 17.031 21.6822 17.031C21.3552 17.1515 21.0984 17.4083 20.9778 17.7355L20.8335 18.1272C20.7786 18.2761 20.6497 18.2922 20.5968 18.2922C20.5438 18.2922 20.4148 18.2761 20.3599 18.1271L20.2155 17.7353C20.095 17.4082 19.8382 17.1514 19.511 17.0309L19.1194 16.8865C18.9704 16.8316 18.9542 16.7027 18.9542 16.6497C18.9542 16.5968 18.9703 16.4679 19.1194 16.4129L19.5112 16.2685C19.8382 16.1479 20.095 15.8912 20.2156 15.564L20.3599 15.1724C20.4148 15.0234 20.5438 15.0072 20.5968 15.0073C20.6496 15.0073 20.7786 15.0234 20.8336 15.1725L20.9779 15.5641C21.0985 15.8913 21.3552 16.148 21.6824 16.2686L22.0741 16.4129C22.2231 16.4679 22.2391 16.5968 22.2391 16.6497C22.2391 16.7027 22.223 16.8317 22.074 16.8866Z" fill="currentColor"/>
<path d="M21.2722 3.49639H21.5162V3.74038C21.5162 3.99931 21.726 4.20911 21.9849 4.20911C22.2438 4.20911 22.4536 3.99931 22.4536 3.74038V3.49639H22.6976C22.9565 3.49639 23.1664 3.28658 23.1664 3.02765C23.1664 2.76872 22.9565 2.55892 22.6976 2.55892H22.4536V2.31493C22.4536 2.056 22.2438 1.84619 21.9849 1.84619C21.726 1.84619 21.5162 2.056 21.5162 2.31493V2.55892H21.2722C21.0133 2.55892 20.8034 2.76872 20.8034 3.02765C20.8034 3.28658 21.0133 3.49639 21.2722 3.49639Z" fill="currentColor"/>
<path d="M8.14348 19.4796H7.89949V19.2356C7.89949 18.9767 7.68962 18.7668 7.43075 18.7668C7.17189 18.7668 6.96202 18.9767 6.96202 19.2356V19.4796H6.71802C6.45916 19.4796 6.24929 19.6894 6.24929 19.9483C6.24929 20.2072 6.45916 20.417 6.71802 20.417H6.96202V20.661C6.96202 20.9199 7.17189 21.1297 7.43075 21.1297C7.68962 21.1297 7.89949 20.9199 7.89949 20.661V20.417H8.14348C8.40234 20.417 8.61221 20.2072 8.61221 19.9483C8.61221 19.6894 8.40234 19.4796 8.14348 19.4796Z" fill="currentColor"/>
</g>
<defs>
<clipPath id="clip0_505_11539">
<rect width="32" height="32" fill="white"/>
</clipPath>
</defs>
</svg>
