<svg width="30" height="28" viewBox="0 0 30 28" fill="currentColor" xmlns="http://www.w3.org/2000/svg">
<path d="M12.4001 12.0107C12.3195 11.8149 12.1306 11.6885 11.919 11.6885C11.9188 11.6885 11.9186 11.6885 11.9184 11.6885C11.7064 11.6887 11.5177 11.8156 11.4373 12.0117C11.4361 12.015 11.4347 12.0184 11.4334 12.0217L10.0245 15.7211C9.93891 15.9457 10.0517 16.1973 10.2764 16.2828C10.5007 16.3684 10.7525 16.2555 10.8381 16.0309L11.0822 15.3899H12.7451L12.9865 16.0297C13.0522 16.204 13.2179 16.3114 13.3938 16.3114C13.4448 16.3114 13.4968 16.3024 13.5475 16.2833C13.7723 16.1984 13.8859 15.9473 13.801 15.7223L12.4048 12.0228C12.4033 12.0187 12.4018 12.0147 12.4001 12.0107ZM11.4138 14.5193L11.9174 13.1969L12.4165 14.5193H11.4138Z" fill="currentColor"/>
<path d="M15.168 11.6885C14.9275 11.6885 14.7327 11.8834 14.7327 12.1237V15.8728C14.7327 16.1132 14.9276 16.3081 15.168 16.3081H16.4819C16.7223 16.3081 16.9172 16.1132 16.9172 15.8728C16.9172 15.6324 16.7223 15.4375 16.4819 15.4375H15.6033V12.1237C15.6032 11.8833 15.4083 11.6885 15.168 11.6885Z" fill="currentColor"/>
<path d="M18.2548 11.6885C18.0144 11.6885 17.8196 11.8834 17.8196 12.1237V15.8728C17.8196 16.1132 18.0145 16.3081 18.2548 16.3081H19.5688C19.8092 16.3081 20.004 16.1132 20.004 15.8728C20.004 15.6324 19.8092 15.4375 19.5688 15.4375H18.6902V12.1237C18.6901 11.8833 18.4953 11.6885 18.2548 11.6885Z" fill="currentColor"/>
<path d="M20.5503 9.2845C20.7238 9.11817 20.7297 8.84256 20.5634 8.66903C19.096 7.13794 17.1202 6.29468 15.0001 6.29468C10.7514 6.29468 7.29486 9.75123 7.29486 13.9999C7.29486 18.2486 10.7514 21.7051 15 21.7051C19.2487 21.7051 22.7053 18.2485 22.7053 13.9998C22.7053 12.7502 22.3991 11.509 21.8199 10.4103C21.7077 10.1976 21.4445 10.1161 21.2318 10.2282C21.0191 10.3404 20.9376 10.6037 21.0497 10.8163C21.5632 11.7903 21.8347 12.8911 21.8347 13.9998C21.8347 17.7684 18.7686 20.8344 15 20.8344C11.2314 20.8344 8.1654 17.7685 8.1654 13.9998C8.1654 10.2312 11.2314 7.16521 15 7.16521C16.8806 7.16521 18.6331 7.91318 19.9348 9.27139C20.1012 9.44497 20.3768 9.45078 20.5503 9.2845Z" fill="currentColor"/>
<path d="M5.59754 13.9949C5.45047 13.7295 5.17051 13.5646 4.86704 13.5646H4.30468C4.53403 7.86353 9.24369 3.29583 15 3.29583C17.6949 3.29583 20.2716 4.30478 22.2553 6.13662C22.6118 6.46621 23.1611 6.45431 23.5058 6.10975L24.1733 5.44228C24.3484 5.26713 24.4423 5.03423 24.4377 4.78648C24.4331 4.54174 24.3276 4.30589 24.1482 4.13927C21.654 1.82393 18.4051 0.548828 15 0.548828C11.9466 0.548828 8.95653 1.60032 6.58043 3.50952C6.39303 3.66012 6.3632 3.93411 6.51381 4.12151C6.66435 4.3089 6.93828 4.33856 7.12579 4.18813C9.38001 2.37684 12.1028 1.41942 15 1.41942C18.1847 1.41942 21.2232 2.61194 23.5559 4.77725C23.5587 4.77981 23.5669 4.78752 23.5672 4.80256C23.5675 4.81683 23.5601 4.82426 23.5576 4.82664L22.8901 5.49411C22.8779 5.50647 22.8578 5.50792 22.8461 5.49724C20.701 3.51625 17.9145 2.42524 15 2.42524C8.61777 2.42524 3.42538 7.61764 3.42538 13.9999C3.42538 14.2403 3.62026 14.4351 3.86064 14.4351H4.80291L2.92244 17.4445L1.04197 14.4351H1.98429C2.22473 14.4351 2.41956 14.2403 2.41956 13.9999C2.41956 10.8596 3.583 7.85251 5.6955 5.53259C5.85736 5.35482 5.84454 5.0795 5.66677 4.9177C5.48901 4.75578 5.21369 4.76866 5.05189 4.94643C2.89075 7.31974 1.65854 10.3652 1.55599 13.5646H0.977952C0.674484 13.5646 0.394635 13.7295 0.247515 13.9949C0.100452 14.2602 0.108984 14.5851 0.269801 14.8423L2.21417 17.9538C2.36785 18.1996 2.63261 18.3463 2.9225 18.3463C3.21239 18.3463 3.4772 18.1996 3.63094 17.9537L5.57519 14.8424C5.73601 14.5851 5.74454 14.2603 5.59754 13.9949Z" fill="currentColor"/>
<path d="M29.7303 13.1574L27.7859 10.0459C27.6322 9.80004 27.3675 9.65332 27.0776 9.65332C26.7877 9.65332 26.5229 9.80003 26.3691 10.0459L24.4249 13.1573C24.264 13.4146 24.2554 13.7394 24.4024 14.0048C24.5495 14.2702 24.8295 14.4351 25.1329 14.4351H25.6953C25.612 16.5196 24.9307 18.5083 23.7122 20.2114C23.5723 20.4069 23.6174 20.6788 23.8128 20.8186C24.0085 20.9587 24.2804 20.9134 24.4201 20.7179C25.8295 18.748 26.5745 16.4249 26.5745 13.9997C26.5745 13.7593 26.3796 13.5645 26.1393 13.5645H25.197L27.0775 10.5551L28.958 13.5645H28.0157C27.7752 13.5645 27.5804 13.7593 27.5804 13.9997C27.5804 20.9366 21.9368 26.5802 14.9999 26.5802C11.8152 26.5802 8.77672 25.3877 6.44409 23.2224C6.44131 23.2198 6.43306 23.2121 6.43277 23.1971C6.43248 23.1828 6.43991 23.1754 6.44235 23.173L7.10982 22.5055C7.12212 22.4931 7.1422 22.4917 7.15387 22.5024C9.29904 24.4834 12.0856 25.5744 15 25.5744C18.0161 25.5744 20.8732 24.4164 23.0451 22.3138C23.2179 22.1466 23.2223 21.8709 23.0551 21.6982C22.8878 21.5255 22.6123 21.521 22.4396 21.6882C20.431 23.6329 17.7889 24.7038 15 24.7038C12.3051 24.7038 9.72839 23.6949 7.74473 21.863C7.38816 21.5335 6.83891 21.5453 6.49423 21.8899L5.82677 22.5574C5.65167 22.7325 5.55777 22.9654 5.56236 23.2132C5.56688 23.4579 5.67239 23.6938 5.85184 23.8604C8.34604 26.1757 11.5949 27.4508 15 27.4508C18.5928 27.4508 21.9706 26.0515 24.5112 23.511C26.949 21.0731 28.3359 17.8647 28.4442 14.4351H29.0221C29.3256 14.4351 29.6054 14.2702 29.7526 14.0048C29.8996 13.7394 29.891 13.4146 29.7303 13.1574Z" fill="currentColor"/>
</svg>
