<svg width="31" height="32" viewBox="0 0 31 32" fill="none" xmlns="http://www.w3.org/2000/svg">
<path d="M12.8856 25.5423C12.9213 25.7705 13.1178 25.9387 13.3488 25.9387H16.7575C16.9884 25.9387 17.1849 25.7705 17.2206 25.5423L17.515 23.6607C17.9312 23.5269 18.3376 23.3583 18.7289 23.157L20.268 24.2804C20.4546 24.4166 20.7125 24.3966 20.8758 24.2333L23.2864 21.8227C23.4498 21.6593 23.4698 21.4014 23.3336 21.2148L22.2101 19.6758C22.4114 19.2844 22.5801 18.878 22.7139 18.4618L24.5955 18.1675C24.8236 18.1318 24.9918 17.9353 24.9918 17.7043V14.2956C24.9918 14.0647 24.8237 13.8682 24.5955 13.8325L22.7139 13.5381C22.5801 13.1219 22.4114 12.7155 22.2101 12.3242L23.3336 10.7851C23.4698 10.5985 23.4498 10.3406 23.2864 10.1773L22.8471 9.7379C22.664 9.55484 22.3672 9.55484 22.1842 9.7379C22.0011 9.92097 22.0011 10.2178 22.1842 10.4008L22.3398 10.5565L21.2789 12.0098C21.1706 12.1582 21.1589 12.3561 21.249 12.5162C21.5284 13.0125 21.7469 13.5392 21.8986 14.0818C21.948 14.2587 22.0961 14.3903 22.2776 14.4187L24.0544 14.6967V17.3032L22.2776 17.5812C22.0961 17.6096 21.948 17.7413 21.8986 17.9182C21.7469 18.4607 21.5284 18.9874 21.249 19.4838C21.1589 19.6438 21.1706 19.8417 21.2789 19.9901L22.3398 21.4435L20.4966 23.2867L19.0433 22.2257C18.8949 22.1174 18.6969 22.1058 18.5369 22.1958C18.0406 22.4752 17.5139 22.6937 16.9713 22.8454C16.7944 22.8948 16.6628 23.043 16.6344 23.2244L16.3564 25.0012H13.7499L13.4719 23.2244C13.4435 23.043 13.3118 22.8948 13.1349 22.8454C12.5924 22.6938 12.0657 22.4752 11.5693 22.1958C11.4094 22.1058 11.2114 22.1174 11.063 22.2257L9.60963 23.2867L7.76644 21.4435L8.82738 19.9901C8.93569 19.8417 8.94732 19.6438 8.85725 19.4838C8.57788 18.9875 8.35938 18.4607 8.20769 17.9182C8.15826 17.7413 8.01013 17.6096 7.82869 17.5812L6.05188 17.3032V14.6967L7.82869 14.4187C8.01013 14.3903 8.15826 14.2587 8.20769 14.0818C8.35932 13.5392 8.57788 13.0125 8.85725 12.5162C8.94732 12.3561 8.93569 12.1582 8.82738 12.0098L7.76644 10.5565L9.60963 8.71328L11.063 9.77422C11.2114 9.88253 11.4093 9.89415 11.5693 9.80409C12.0656 9.52472 12.5924 9.30622 13.1349 9.15453C13.3118 9.10509 13.4435 8.95697 13.4719 8.77553L13.7499 6.99872H16.3564L16.6344 8.77553C16.6628 8.95697 16.7944 9.10509 16.9713 9.15453C17.5139 9.30615 18.0406 9.52472 18.5369 9.80409C18.6969 9.89422 18.8949 9.88253 19.0433 9.77422L20.4966 8.71328L20.6373 8.8539C20.8203 9.03697 21.1171 9.03697 21.3001 8.8539C21.4832 8.67084 21.4832 8.37403 21.3001 8.19103L20.8758 7.76665C20.7124 7.60334 20.4545 7.58322 20.2679 7.71953L18.7289 8.84297C18.3375 8.64165 17.9311 8.47303 17.5149 8.33922L17.2206 6.45759C17.1849 6.22947 16.9884 6.06128 16.7574 6.06128H13.3487C13.1178 6.06128 12.9213 6.2294 12.8856 6.45759L12.5912 8.33922C12.175 8.47303 11.7686 8.64165 11.3773 8.84297L9.83819 7.71953C9.65163 7.58334 9.39369 7.60334 9.23038 7.76665L6.81975 10.1773C6.65644 10.3406 6.63638 10.5985 6.77263 10.7851L7.89607 12.3242C7.69475 12.7155 7.52613 13.1219 7.39232 13.5381L5.51069 13.8325C5.28257 13.8682 5.11438 14.0647 5.11438 14.2956V17.7043C5.11438 17.9352 5.2825 18.1318 5.51069 18.1675L7.39232 18.4618C7.52613 18.878 7.69475 19.2845 7.89607 19.6758L6.77263 21.2148C6.63644 21.4014 6.65644 21.6593 6.81975 21.8227L9.23038 24.2333C9.39363 24.3966 9.65163 24.4167 9.83819 24.2804L11.3773 23.157C11.7686 23.3583 12.175 23.5269 12.5912 23.6607L12.8856 25.5423Z" fill="currentColor"/>
<path d="M2.83187 16C2.83187 12.8414 4.03269 9.84437 6.21319 7.561C8.27238 5.40462 11.0052 4.09031 13.9531 3.82775V3.96625C13.9531 4.385 14.2938 4.72563 14.7125 4.72563C14.8638 4.72563 15.0099 4.68131 15.1338 4.59819L17.6076 2.94937C17.8041 2.81837 17.9213 2.599 17.9213 2.3625C17.9213 2.12637 17.804 1.90719 17.6075 1.77625L15.1349 0.12825C15.0099 0.044375 14.8638 0 14.7125 0C14.2938 0 13.9531 0.340625 13.9531 0.759375V0.987625C11.539 1.1635 9.19081 1.92281 7.13588 3.19581C5.01106 4.51206 3.23088 6.35288 1.98781 8.51919C1.85894 8.74375 1.9365 9.03019 2.16106 9.15906C2.38556 9.28794 2.67206 9.21031 2.80094 8.98581C3.96688 6.95394 5.63656 5.22738 7.62956 3.99275C9.67525 2.7255 12.0309 2.00125 14.4419 1.89831C14.6928 1.88762 14.8906 1.68106 14.8906 1.43V1.09206L16.7972 2.36281L14.8906 3.63356V3.32562C14.8906 3.19731 14.8381 3.07463 14.7451 2.98619C14.6523 2.89769 14.5272 2.85106 14.3989 2.85744C11.0229 3.02275 7.87506 4.46319 5.53512 6.91356C3.18731 9.37212 1.89437 12.5991 1.89437 16C1.89437 19.3586 3.14394 22.5248 5.42281 24.9674L4.746 25.6443C2.28644 23.0199 0.9375 19.6134 0.9375 16C0.9375 14.239 1.25763 12.5213 1.88888 10.8946C1.98256 10.6532 1.86281 10.3816 1.6215 10.2879C1.38019 10.1944 1.10856 10.314 1.01494 10.5554C0.341438 12.2907 0 14.1225 0 16C0 20.0206 1.56587 23.8007 4.40919 26.6439C4.50069 26.7354 4.62069 26.7812 4.74062 26.7812C4.86056 26.7812 4.98056 26.7355 5.07206 26.6439L6.41144 25.3046C6.49937 25.2166 6.54875 25.0974 6.54875 24.9731C6.54875 24.8487 6.49931 24.7295 6.41144 24.6416C4.10313 22.3339 2.83187 19.2649 2.83187 16Z" fill="currentColor"/>
<path d="M25.6971 5.35605C25.514 5.17298 25.2172 5.17298 25.0342 5.35605L23.6948 6.69542C23.6069 6.78336 23.5575 6.90255 23.5575 7.02692C23.5575 7.1513 23.6069 7.27048 23.6948 7.35842C26.0031 9.66605 27.2744 12.735 27.2744 16C27.2744 18.3692 26.5957 20.6669 25.3119 22.6447C25.1709 22.8619 25.2326 23.1522 25.4498 23.2931C25.6669 23.4342 25.9573 23.3724 26.0982 23.1552C27.481 21.025 28.2119 18.5508 28.2119 16C28.2119 12.6414 26.9623 9.47517 24.6834 7.03255L25.3602 6.35573C27.8198 8.98011 29.1687 12.3865 29.1687 16C29.1687 19.6639 27.7712 23.1361 25.2336 25.7772C22.7034 28.4105 19.3051 29.9463 15.6644 30.1017C15.4135 30.1124 15.2156 30.3189 15.2156 30.57V30.9079L13.3091 29.6372L15.2156 28.3664V28.6744C15.2156 28.8027 15.2682 28.9254 15.3611 29.0138C15.4541 29.1023 15.5797 29.1489 15.7073 29.1425C19.1567 28.9739 22.3524 27.4822 24.7057 24.9423C24.8817 24.7524 24.8704 24.4559 24.6805 24.2799C24.4906 24.1039 24.1941 24.1152 24.0181 24.3051C21.9447 26.5429 19.1673 27.9045 16.1532 28.1723V28.0337C16.1532 27.6149 15.8126 27.2743 15.3938 27.2743C15.2425 27.2743 15.0964 27.3186 14.9726 27.4017L12.4987 29.0505C12.3022 29.1815 12.185 29.4009 12.185 29.6374C12.185 29.8735 12.3023 30.0927 12.4988 30.2237L14.9714 31.8717C15.0964 31.9555 15.2425 31.9999 15.3938 31.9999C15.8126 31.9999 16.1532 31.6593 16.1532 31.2405V31.0125C19.8659 30.7442 23.3158 29.1263 25.9097 26.4267C28.6159 23.6102 30.1062 19.9072 30.1062 16C30.1062 11.9794 28.5404 8.1993 25.6971 5.35605Z" fill="currentColor"/>
<path d="M17.1997 12.6902H12.9066C12.6477 12.6902 12.4378 12.9001 12.4378 13.1589C12.4378 13.4178 12.6477 13.6277 12.9066 13.6277H17.1997C17.4586 13.6277 17.6685 13.4178 17.6685 13.1589C17.6685 12.9001 17.4586 12.6902 17.1997 12.6902Z" fill="currentColor"/>
<path d="M17.1997 14.5842H12.9066C12.6477 14.5842 12.4378 14.7941 12.4378 15.053C12.4378 15.3119 12.6477 15.5217 12.9066 15.5217H17.1997C17.4586 15.5217 17.6685 15.3119 17.6685 15.053C17.6685 14.7941 17.4586 14.5842 17.1997 14.5842Z" fill="currentColor"/>
<path d="M15.0531 18.3723H12.9065C12.6476 18.3723 12.4377 18.5822 12.4377 18.8411C12.4377 19.0999 12.6476 19.3098 12.9065 19.3098H15.0531C15.312 19.3098 15.5219 19.0999 15.5219 18.8411C15.5219 18.5822 15.312 18.3723 15.0531 18.3723Z" fill="currentColor"/>
<path d="M17.1997 16.4783H12.9066C12.6477 16.4783 12.4378 16.6881 12.4378 16.947C12.4378 17.2059 12.6477 17.4158 12.9066 17.4158H17.1997C17.4586 17.4158 17.6685 17.2059 17.6685 16.947C17.6685 16.6881 17.4586 16.4783 17.1997 16.4783Z" fill="currentColor"/>
<path d="M18.2099 10.7961H11.8964C11.2898 10.7961 10.7963 11.2896 10.7963 11.8963V20.1038C10.7963 20.7105 11.2898 21.204 11.8964 21.204H18.21C18.8166 21.204 19.3101 20.7105 19.3101 20.1038V11.8962C19.31 11.2896 18.8165 10.7961 18.2099 10.7961ZM18.3725 20.1038C18.3725 20.1935 18.2996 20.2665 18.2099 20.2665H11.8964C11.8067 20.2665 11.7338 20.1935 11.7338 20.1038V11.8962C11.7338 11.8065 11.8067 11.7336 11.8964 11.7336H18.21C18.2996 11.7336 18.3726 11.8065 18.3726 11.8962V20.1038H18.3725Z" fill="currentColor"/>
</svg>
