<?xml version="1.0" encoding="UTF-8"?>
<svg xmlns="http://www.w3.org/2000/svg" xmlns:xlink="http://www.w3.org/1999/xlink" width="28px" height="28px" viewBox="0 0 28 28" version="1.1">
<g id="surface1">
<path fill="currentColor" style=" stroke:none;fill-rule:nonzero;fill-opacity:1;" d="M 10.160156 10.4375 L 7.109375 9.167969 C 6.792969 9.035156 6.441406 9.035156 6.125 9.164062 C 5.808594 9.296875 5.558594 9.542969 5.429688 9.859375 L 4.742188 12.199219 L 9.679688 14.253906 L 10.835938 12.160156 L 10.855469 12.117188 C 11.128906 11.464844 10.816406 10.710938 10.160156 10.4375 Z M 10.101562 11.785156 L 9.316406 13.207031 L 5.738281 11.71875 L 6.195312 10.160156 C 6.246094 10.054688 6.332031 9.972656 6.4375 9.925781 C 6.554688 9.878906 6.679688 9.878906 6.792969 9.929688 L 9.84375 11.199219 C 9.957031 11.246094 10.046875 11.335938 10.09375 11.449219 C 10.140625 11.554688 10.140625 11.675781 10.101562 11.785156 Z M 10.101562 11.785156 "/>
<path fill="currentColor" style=" stroke:none;fill-rule:nonzero;fill-opacity:1;" d="M 3.253906 16.050781 L 2.617188 17.582031 C 2.425781 18.039062 2.425781 18.542969 2.613281 19.003906 C 2.800781 19.460938 3.160156 19.816406 3.617188 20.007812 L 4.933594 20.554688 C 5.164062 20.652344 5.40625 20.699219 5.644531 20.699219 C 5.886719 20.699219 6.125 20.652344 6.351562 20.558594 C 6.8125 20.371094 7.167969 20.011719 7.359375 19.554688 L 7.996094 18.023438 Z M 6.597656 19.238281 C 6.492188 19.492188 6.292969 19.691406 6.039062 19.796875 C 5.785156 19.902344 5.503906 19.902344 5.25 19.796875 L 3.933594 19.246094 C 3.679688 19.140625 3.480469 18.941406 3.375 18.6875 C 3.269531 18.433594 3.269531 18.152344 3.375 17.898438 L 3.699219 17.125 L 6.917969 18.464844 Z M 6.597656 19.238281 "/>
<path fill="currentColor" style=" stroke:none;fill-rule:nonzero;fill-opacity:1;" d="M 13.246094 8.289062 C 13.214844 8.214844 13.179688 8.140625 13.144531 8.066406 C 13.113281 8.003906 13.082031 7.941406 13.046875 7.882812 C 12.6875 7.265625 12.136719 6.78125 11.464844 6.503906 L 8.980469 5.46875 C 8.929688 5.445312 8.875 5.425781 8.824219 5.40625 C 8.816406 5.40625 8.8125 5.402344 8.804688 5.402344 C 8.757812 5.386719 8.710938 5.371094 8.664062 5.355469 C 7.9375 5.136719 7.167969 5.171875 6.457031 5.464844 C 5.75 5.757812 5.179688 6.273438 4.820312 6.9375 C 4.816406 6.9375 4.816406 6.941406 4.816406 6.941406 C 4.792969 6.984375 4.773438 7.027344 4.75 7.070312 C 4.746094 7.078125 4.742188 7.085938 4.742188 7.089844 C 4.714844 7.140625 4.695312 7.191406 4.671875 7.246094 L 4.292969 8.15625 L 3.429688 11.230469 L 0.207031 18.976562 C -0.0664062 19.636719 -0.0703125 20.363281 0.203125 21.027344 C 0.476562 21.6875 0.992188 22.203125 1.652344 22.476562 L 4.566406 23.691406 C 4.902344 23.832031 5.25 23.898438 5.589844 23.898438 C 6.640625 23.894531 7.640625 23.273438 8.066406 22.246094 L 11.289062 14.503906 L 12.863281 11.722656 L 13.242188 10.8125 C 13.582031 10 13.582031 9.101562 13.246094 8.289062 Z M 5.648438 7.15625 C 5.664062 7.132812 5.679688 7.109375 5.695312 7.089844 C 5.695312 7.082031 5.699219 7.078125 5.703125 7.074219 C 6.25 6.304688 7.199219 5.914062 8.132812 6.074219 C 8.136719 6.074219 8.136719 6.074219 8.140625 6.078125 C 8.171875 6.082031 8.199219 6.085938 8.226562 6.09375 C 8.226562 6.09375 8.230469 6.09375 8.230469 6.09375 C 7.671875 6.945312 6.640625 7.371094 5.644531 7.160156 C 5.648438 7.15625 5.648438 7.15625 5.648438 7.15625 Z M 12.121094 11.359375 L 10.546875 14.140625 L 7.308594 21.929688 C 7.117188 22.386719 6.761719 22.742188 6.300781 22.933594 C 5.84375 23.121094 5.339844 23.121094 4.882812 22.929688 L 1.96875 21.71875 C 1.511719 21.527344 1.15625 21.171875 0.964844 20.710938 C 0.777344 20.253906 0.777344 19.75 0.96875 19.292969 L 4.210938 11.503906 L 5.074219 8.425781 L 5.285156 7.917969 C 5.574219 7.996094 5.867188 8.035156 6.15625 8.035156 C 7.316406 8.035156 8.425781 7.417969 9.019531 6.378906 L 10.792969 7.117188 C 10.394531 8.5625 11.03125 10.105469 12.335938 10.851562 Z M 12.671875 9.570312 C 12.671875 9.59375 12.671875 9.621094 12.671875 9.648438 C 12.671875 9.660156 12.671875 9.667969 12.667969 9.679688 C 12.667969 9.714844 12.664062 9.753906 12.660156 9.789062 C 12.660156 9.792969 12.660156 9.796875 12.660156 9.796875 C 12.65625 9.832031 12.652344 9.863281 12.648438 9.898438 C 12.644531 9.90625 12.644531 9.917969 12.640625 9.929688 C 12.636719 9.957031 12.632812 9.980469 12.628906 10.007812 C 12.625 10.019531 12.625 10.03125 12.621094 10.042969 C 12.621094 10.046875 12.621094 10.054688 12.617188 10.058594 C 11.765625 9.503906 11.339844 8.472656 11.550781 7.476562 C 11.554688 7.476562 11.558594 7.480469 11.5625 7.484375 C 11.609375 7.511719 11.652344 7.542969 11.695312 7.574219 C 11.703125 7.582031 11.710938 7.589844 11.722656 7.597656 C 11.757812 7.625 11.792969 7.65625 11.832031 7.6875 C 11.839844 7.695312 11.847656 7.699219 11.851562 7.707031 C 11.894531 7.742188 11.933594 7.78125 11.96875 7.816406 C 11.976562 7.828125 11.984375 7.835938 11.996094 7.84375 C 12.027344 7.878906 12.058594 7.914062 12.089844 7.953125 C 12.097656 7.957031 12.101562 7.964844 12.105469 7.96875 C 12.140625 8.011719 12.171875 8.054688 12.203125 8.097656 C 12.210938 8.109375 12.21875 8.121094 12.226562 8.128906 C 12.257812 8.171875 12.285156 8.214844 12.308594 8.257812 C 12.3125 8.261719 12.316406 8.265625 12.316406 8.269531 C 12.347656 8.316406 12.371094 8.367188 12.398438 8.414062 C 12.402344 8.425781 12.410156 8.4375 12.414062 8.449219 C 12.441406 8.5 12.464844 8.550781 12.484375 8.601562 C 12.5 8.636719 12.511719 8.671875 12.527344 8.707031 C 12.527344 8.71875 12.53125 8.730469 12.535156 8.738281 C 12.546875 8.765625 12.554688 8.789062 12.5625 8.816406 C 12.566406 8.828125 12.570312 8.839844 12.570312 8.847656 C 12.582031 8.878906 12.589844 8.910156 12.597656 8.9375 C 12.597656 8.945312 12.601562 8.949219 12.601562 8.957031 C 12.609375 8.992188 12.617188 9.027344 12.625 9.0625 C 12.625 9.074219 12.628906 9.082031 12.628906 9.089844 C 12.636719 9.117188 12.640625 9.144531 12.644531 9.171875 C 12.644531 9.183594 12.648438 9.195312 12.648438 9.207031 C 12.652344 9.234375 12.65625 9.261719 12.660156 9.289062 C 12.660156 9.296875 12.660156 9.308594 12.664062 9.316406 C 12.664062 9.351562 12.667969 9.386719 12.671875 9.425781 C 12.671875 9.433594 12.671875 9.441406 12.671875 9.449219 C 12.671875 9.476562 12.671875 9.503906 12.671875 9.535156 C 12.671875 9.546875 12.671875 9.558594 12.671875 9.570312 Z M 12.671875 9.570312 "/>
<path fill="currentColor" style=" stroke:none;fill-rule:nonzero;fill-opacity:1;" d="M 24.664062 10.4375 L 21.613281 9.167969 C 21.292969 9.035156 20.945312 9.035156 20.628906 9.164062 C 20.308594 9.296875 20.0625 9.542969 19.929688 9.859375 L 19.242188 12.199219 L 24.183594 14.253906 L 25.335938 12.160156 L 25.355469 12.117188 C 25.628906 11.464844 25.320312 10.710938 24.664062 10.4375 Z M 24.601562 11.785156 L 23.820312 13.207031 L 20.242188 11.71875 L 20.699219 10.160156 C 20.746094 10.054688 20.832031 9.972656 20.941406 9.925781 C 21.054688 9.878906 21.179688 9.878906 21.296875 9.929688 L 24.347656 11.199219 C 24.460938 11.246094 24.550781 11.335938 24.597656 11.449219 C 24.640625 11.554688 24.644531 11.675781 24.601562 11.785156 Z M 24.601562 11.785156 "/>
<path fill="currentColor" style=" stroke:none;fill-rule:nonzero;fill-opacity:1;" d="M 17.757812 16.050781 L 17.117188 17.582031 C 16.929688 18.039062 16.925781 18.542969 17.117188 19.003906 C 17.304688 19.460938 17.660156 19.816406 18.117188 20.007812 L 19.4375 20.554688 C 19.664062 20.652344 19.90625 20.699219 20.148438 20.699219 C 20.386719 20.699219 20.628906 20.652344 20.855469 20.558594 C 21.3125 20.371094 21.671875 20.011719 21.859375 19.554688 L 22.5 18.023438 Z M 21.097656 19.238281 C 20.992188 19.492188 20.796875 19.691406 20.542969 19.796875 C 20.285156 19.902344 20.007812 19.902344 19.753906 19.796875 L 18.433594 19.246094 C 18.179688 19.140625 17.984375 18.941406 17.878906 18.6875 C 17.773438 18.433594 17.773438 18.152344 17.878906 17.898438 L 18.199219 17.125 L 21.421875 18.464844 Z M 21.097656 19.238281 "/>
<path fill="currentColor" style=" stroke:none;fill-rule:nonzero;fill-opacity:1;" d="M 27.75 8.289062 C 27.71875 8.214844 27.683594 8.140625 27.644531 8.066406 C 27.617188 8.003906 27.582031 7.941406 27.546875 7.882812 C 27.1875 7.265625 26.640625 6.78125 25.96875 6.503906 L 23.484375 5.46875 C 23.429688 5.445312 23.378906 5.425781 23.328125 5.40625 C 23.320312 5.40625 23.3125 5.402344 23.308594 5.402344 C 23.261719 5.386719 23.214844 5.371094 23.167969 5.355469 C 23.164062 5.355469 23.164062 5.355469 23.164062 5.355469 C 22.441406 5.136719 21.667969 5.171875 20.960938 5.464844 C 20.253906 5.757812 19.679688 6.273438 19.320312 6.9375 C 19.320312 6.9375 19.320312 6.941406 19.320312 6.941406 C 19.296875 6.984375 19.273438 7.027344 19.253906 7.070312 C 19.25 7.078125 19.246094 7.085938 19.242188 7.089844 C 19.21875 7.140625 19.195312 7.191406 19.175781 7.246094 L 18.796875 8.15625 L 17.929688 11.230469 L 14.710938 18.976562 C 14.433594 19.636719 14.433594 20.363281 14.707031 21.027344 C 14.980469 21.6875 15.492188 22.203125 16.152344 22.476562 L 19.066406 23.691406 C 19.402344 23.832031 19.75 23.898438 20.09375 23.898438 C 21.144531 23.894531 22.140625 23.273438 22.570312 22.246094 L 25.792969 14.503906 L 27.367188 11.722656 L 27.746094 10.8125 C 28.082031 10 28.085938 9.101562 27.75 8.289062 Z M 20.152344 7.15625 C 20.164062 7.132812 20.179688 7.109375 20.195312 7.089844 C 20.199219 7.082031 20.203125 7.078125 20.207031 7.074219 C 20.753906 6.304688 21.703125 5.914062 22.632812 6.074219 C 22.636719 6.074219 22.640625 6.074219 22.644531 6.078125 C 22.671875 6.082031 22.699219 6.085938 22.730469 6.09375 C 22.175781 6.945312 21.140625 7.371094 20.148438 7.160156 C 20.148438 7.15625 20.148438 7.15625 20.152344 7.15625 Z M 26.625 11.359375 L 25.050781 14.140625 L 21.808594 21.929688 C 21.621094 22.386719 21.261719 22.742188 20.804688 22.933594 C 20.347656 23.121094 19.839844 23.121094 19.382812 22.929688 L 16.46875 21.71875 C 16.011719 21.527344 15.65625 21.171875 15.46875 20.710938 C 15.277344 20.253906 15.28125 19.75 15.46875 19.292969 L 18.710938 11.503906 L 19.574219 8.425781 L 19.785156 7.917969 C 20.074219 7.996094 20.367188 8.035156 20.65625 8.035156 C 21.820312 8.035156 22.925781 7.421875 23.523438 6.378906 L 25.296875 7.117188 C 24.898438 8.5625 25.535156 10.105469 26.835938 10.851562 Z M 27.175781 9.570312 C 27.175781 9.59375 27.175781 9.621094 27.171875 9.648438 C 27.171875 9.660156 27.171875 9.667969 27.171875 9.679688 C 27.167969 9.714844 27.167969 9.753906 27.164062 9.789062 C 27.164062 9.792969 27.164062 9.796875 27.164062 9.796875 C 27.160156 9.832031 27.15625 9.863281 27.148438 9.898438 C 27.148438 9.90625 27.144531 9.917969 27.144531 9.929688 C 27.140625 9.957031 27.136719 9.980469 27.132812 10.007812 C 27.128906 10.019531 27.125 10.03125 27.125 10.042969 C 27.125 10.046875 27.121094 10.054688 27.121094 10.058594 C 26.269531 9.503906 25.84375 8.472656 26.054688 7.476562 C 26.058594 7.480469 26.0625 7.480469 26.066406 7.484375 C 26.109375 7.511719 26.152344 7.542969 26.195312 7.578125 C 26.207031 7.582031 26.214844 7.589844 26.222656 7.597656 C 26.261719 7.625 26.296875 7.65625 26.332031 7.6875 C 26.339844 7.695312 26.347656 7.699219 26.355469 7.707031 C 26.394531 7.742188 26.433594 7.78125 26.472656 7.816406 C 26.480469 7.828125 26.488281 7.835938 26.496094 7.84375 C 26.53125 7.878906 26.5625 7.914062 26.59375 7.953125 C 26.597656 7.957031 26.601562 7.964844 26.609375 7.972656 C 26.644531 8.011719 26.675781 8.054688 26.707031 8.097656 C 26.714844 8.109375 26.722656 8.121094 26.730469 8.128906 C 26.757812 8.171875 26.785156 8.214844 26.8125 8.257812 C 26.816406 8.261719 26.816406 8.265625 26.820312 8.269531 C 26.847656 8.316406 26.875 8.367188 26.898438 8.414062 C 26.90625 8.425781 26.910156 8.4375 26.917969 8.449219 C 26.941406 8.5 26.964844 8.550781 26.988281 8.605469 C 27 8.636719 27.015625 8.671875 27.027344 8.707031 C 27.03125 8.71875 27.035156 8.730469 27.039062 8.738281 C 27.046875 8.765625 27.054688 8.789062 27.0625 8.816406 C 27.066406 8.828125 27.070312 8.839844 27.074219 8.847656 C 27.082031 8.878906 27.089844 8.910156 27.097656 8.9375 C 27.101562 8.945312 27.101562 8.949219 27.101562 8.957031 C 27.113281 8.992188 27.121094 9.027344 27.128906 9.0625 C 27.128906 9.074219 27.128906 9.082031 27.132812 9.089844 C 27.136719 9.117188 27.140625 9.144531 27.144531 9.171875 C 27.148438 9.183594 27.148438 9.195312 27.152344 9.207031 C 27.15625 9.234375 27.160156 9.261719 27.160156 9.289062 C 27.164062 9.300781 27.164062 9.308594 27.164062 9.316406 C 27.167969 9.351562 27.171875 9.390625 27.171875 9.425781 C 27.171875 9.433594 27.171875 9.441406 27.171875 9.449219 C 27.175781 9.476562 27.175781 9.503906 27.175781 9.535156 C 27.175781 9.546875 27.175781 9.558594 27.175781 9.570312 Z M 27.175781 9.570312 "/>
<path fill="currentColor" style=" stroke:none;fill-rule:nonzero;fill-opacity:1;" d="M 18.324219 1.632812 L 18.023438 2.402344 L 18.792969 2.699219 L 19.089844 1.929688 Z M 18.324219 1.632812 "/>
<path fill="currentColor" style=" stroke:none;fill-rule:nonzero;fill-opacity:1;" d="M 18.917969 0.0976562 L 18.621094 0.863281 L 19.386719 1.164062 L 19.6875 0.394531 Z M 18.917969 0.0976562 "/>
<path fill="currentColor" style=" stroke:none;fill-rule:nonzero;fill-opacity:1;" d="M 8.566406 26.835938 L 8.269531 27.605469 L 9.039062 27.902344 L 9.335938 27.136719 Z M 8.566406 26.835938 "/>
<path fill="currentColor" style=" stroke:none;fill-rule:nonzero;fill-opacity:1;" d="M 9.160156 25.300781 L 8.863281 26.070312 L 9.632812 26.367188 L 9.929688 25.597656 Z M 9.160156 25.300781 "/>
<path fill="currentColor" style=" stroke:none;fill-rule:nonzero;fill-opacity:1;" d="M 17.730469 3.167969 L 9.460938 24.53125 L 10.226562 24.828125 L 18.496094 3.464844 Z M 17.730469 3.167969 "/>
<path fill="currentColor" style=" stroke:none;fill-rule:nonzero;fill-opacity:1;" d="M 1.808594 19.914062 L 1.492188 20.675781 L 2.554688 21.121094 L 2.871094 20.359375 Z M 1.808594 19.914062 "/>
<path fill="currentColor" style=" stroke:none;fill-rule:nonzero;fill-opacity:1;" d="M 5.257812 21.351562 L 4.941406 22.113281 L 6.007812 22.558594 L 6.324219 21.796875 Z M 5.257812 21.351562 "/>
<path fill="currentColor" style=" stroke:none;fill-rule:nonzero;fill-opacity:1;" d="M 16.308594 19.917969 L 15.992188 20.675781 L 17.058594 21.121094 L 17.375 20.359375 Z M 16.308594 19.917969 "/>
<path fill="currentColor" style=" stroke:none;fill-rule:nonzero;fill-opacity:1;" d="M 19.761719 21.351562 L 19.445312 22.113281 L 20.507812 22.558594 L 20.824219 21.796875 Z M 19.761719 21.351562 "/>
</g>
</svg>
