<?xml version="1.0" encoding="UTF-8"?>
<svg xmlns="http://www.w3.org/2000/svg" xmlns:xlink="http://www.w3.org/1999/xlink" width="28px" height="28px" viewBox="0 0 28 28" version="1.1">
<g id="surface1">
<path style=" stroke:none;fill-rule:nonzero;fill:rgb(0%,0%,0%);fill-opacity:1;" d="M 27.710938 23.082031 L 15.769531 2.832031 C 14.972656 1.484375 13.027344 1.484375 12.230469 2.832031 L 0.289062 23.082031 C -0.519531 24.445312 0.464844 26.175781 2.054688 26.175781 L 6.882812 26.175781 C 7.109375 26.175781 7.292969 25.992188 7.292969 25.761719 C 7.292969 25.539062 7.109375 25.355469 6.882812 25.355469 L 2.054688 25.355469 C 1.101562 25.355469 0.511719 24.320312 0.996094 23.496094 L 12.941406 3.25 C 13.414062 2.445312 14.582031 2.441406 15.058594 3.25 L 27.003906 23.496094 C 27.488281 24.320312 26.898438 25.355469 25.945312 25.355469 L 8.800781 25.355469 C 8.570312 25.355469 8.386719 25.539062 8.386719 25.761719 C 8.386719 25.992188 8.570312 26.175781 8.800781 26.175781 L 25.945312 26.175781 C 27.53125 26.175781 28.519531 24.445312 27.710938 23.082031 Z M 27.710938 23.082031 "/>
<path style=" stroke:none;fill-rule:nonzero;fill:rgb(0%,0%,0%);fill-opacity:1;" d="M 16.863281 10.328125 C 17.050781 10.210938 17.117188 9.957031 17.007812 9.761719 L 14.710938 5.871094 C 14.386719 5.332031 13.613281 5.332031 13.289062 5.871094 L 3.503906 22.472656 C 3.179688 23.019531 3.574219 23.703125 4.210938 23.703125 L 23.789062 23.703125 C 24.425781 23.703125 24.820312 23.019531 24.496094 22.472656 L 17.976562 11.414062 C 17.859375 11.214844 17.609375 11.152344 17.414062 11.269531 C 17.222656 11.382812 17.152344 11.632812 17.269531 11.832031 L 23.789062 22.882812 L 4.210938 22.882812 L 14 6.289062 L 16.296875 10.179688 C 16.410156 10.371094 16.664062 10.441406 16.863281 10.328125 Z M 16.863281 10.328125 "/>
<path style=" stroke:none;fill-rule:nonzero;fill:rgb(0%,0%,0%);fill-opacity:1;" d="M 14 18.941406 C 13.09375 18.941406 12.355469 19.679688 12.355469 20.589844 C 12.355469 21.492188 13.09375 22.234375 14 22.234375 C 14.90625 22.234375 15.644531 21.492188 15.644531 20.589844 C 15.644531 19.679688 14.90625 18.941406 14 18.941406 Z M 14 21.414062 C 13.542969 21.414062 13.179688 21.046875 13.179688 20.589844 C 13.179688 20.132812 13.542969 19.761719 14 19.761719 C 14.457031 19.761719 14.820312 20.132812 14.820312 20.589844 C 14.820312 21.046875 14.457031 21.414062 14 21.414062 Z M 14 21.414062 "/>
<path style=" stroke:none;fill-rule:nonzero;fill:rgb(0%,0%,0%);fill-opacity:1;" d="M 15.398438 11.339844 C 14.652344 10.496094 13.34375 10.5 12.601562 11.335938 C 12.25 11.738281 12.085938 12.273438 12.148438 12.804688 L 12.667969 16.941406 C 12.746094 17.609375 13.324219 18.117188 14 18.117188 C 14.675781 18.117188 15.253906 17.609375 15.332031 16.941406 L 15.851562 12.804688 C 15.914062 12.273438 15.75 11.738281 15.398438 11.339844 Z M 15.039062 12.699219 L 14.519531 16.839844 C 14.488281 17.097656 14.265625 17.300781 14 17.300781 C 13.734375 17.300781 13.511719 17.097656 13.480469 16.839844 L 12.960938 12.699219 C 12.886719 12.082031 13.371094 11.53125 14 11.53125 C 14.609375 11.53125 15.117188 12.0625 15.039062 12.699219 Z M 15.039062 12.699219 "/>
</g>
</svg>
