<svg width="134" height="134" viewBox="0 0 134 134" fill="none" xmlns="http://www.w3.org/2000/svg">
<path fill-rule="evenodd" clip-rule="evenodd" d="M108.875 74.5731H25.125V113.333C25.125 115.181 26.3373 116.812 28.1086 117.344C36.5234 119.867 60.1869 126.967 65.7961 128.65C66.5812 128.885 67.4188 128.885 68.2039 128.65C73.8131 126.967 97.4766 119.867 105.891 117.344C107.663 116.812 108.875 115.181 108.875 113.333C108.875 103.626 108.875 74.5731 108.875 74.5731Z" fill="url(#paint0_linear_530_18345)"/>
<path fill-rule="evenodd" clip-rule="evenodd" d="M108.876 74.5731H67.0008C67.0008 74.5731 66.5947 128.826 67.0008 128.826C67.407 128.826 67.8111 128.768 68.2047 128.65C73.8139 126.967 97.4775 119.867 105.892 117.344C107.664 116.812 108.876 115.181 108.876 113.333C108.876 103.626 108.876 74.5731 108.876 74.5731Z" fill="url(#paint1_linear_530_18345)"/>
<path fill-rule="evenodd" clip-rule="evenodd" d="M67.0002 88.1594L25.1252 74.5731C25.1252 74.5731 17.7824 85.4606 14.4994 90.3265C14.1309 90.8729 14.0409 91.5576 14.2544 92.1794C14.4701 92.8013 14.9621 93.2849 15.5881 93.4901C23.5423 96.0738 47.0886 103.724 53.2652 105.73C54.1508 106.019 55.1223 105.686 55.6458 104.914C58.4535 100.77 67.0002 88.1594 67.0002 88.1594Z" fill="url(#paint2_linear_530_18345)"/>
<path fill-rule="evenodd" clip-rule="evenodd" d="M108.875 74.5731L67 88.1594C67 88.1594 75.5467 100.77 78.3544 104.914C78.8778 105.686 79.8493 106.019 80.735 105.73C86.9116 103.724 110.458 96.0738 118.412 93.4901C119.038 93.2849 119.53 92.8013 119.746 92.1794C119.959 91.5576 119.869 90.8729 119.501 90.3265C116.218 85.4606 108.875 74.5731 108.875 74.5731Z" fill="url(#paint3_linear_530_18345)"/>
<path fill-rule="evenodd" clip-rule="evenodd" d="M56.8645 46.0332C56.3411 45.2648 55.3717 44.9319 54.486 45.2208C48.3136 47.2246 24.761 54.8772 16.8069 57.463C16.1809 57.6661 15.6867 58.1497 15.4732 58.7716C15.2596 59.3934 15.3496 60.0802 15.7181 60.6246C18.7415 65.1094 25.1254 74.5731 25.1254 74.5731L67.0004 60.9407C67.0004 60.9407 59.4796 49.8794 56.8645 46.0332Z" fill="url(#paint4_linear_530_18345)"/>
<path fill-rule="evenodd" clip-rule="evenodd" d="M118.282 60.6246C118.651 60.0802 118.741 59.3934 118.527 58.7716C118.314 58.1497 117.819 57.6661 117.193 57.463C109.239 54.8772 85.6867 47.2246 79.5143 45.2208C78.6287 44.9319 77.6593 45.2648 77.1358 46.0332C74.5207 49.8794 67 60.9407 67 60.9407L108.875 74.5731C108.875 74.5731 115.259 65.1094 118.282 60.6246Z" fill="url(#paint5_linear_530_18345)"/>
<path fill-rule="evenodd" clip-rule="evenodd" d="M108.875 74.5731L67 60.9407L25.125 74.5731L67 88.1595L108.875 74.5731Z" fill="url(#paint6_linear_530_18345)"/>
<path fill-rule="evenodd" clip-rule="evenodd" d="M67 88.1595V60.9407L25.125 74.5731L67 88.1595Z" fill="url(#paint7_linear_530_18345)"/>
<path fill-rule="evenodd" clip-rule="evenodd" d="M58.587 66.9539C57.716 66.3844 56.9308 65.7752 56.2336 65.1366C55.3835 64.3556 54.0582 64.4121 53.2751 65.2643C52.4942 66.1143 52.5507 67.4397 53.4028 68.2207C54.2592 69.0079 55.2244 69.7575 56.2964 70.4589C57.2637 71.0912 58.5618 70.819 59.1941 69.8517C59.8265 68.8844 59.5543 67.5863 58.587 66.9539Z" fill="currentColor"/>
<path fill-rule="evenodd" clip-rule="evenodd" d="M52.0628 60.5219C51.4409 59.6782 50.9154 58.8302 50.4841 57.9822C49.9607 56.9521 48.6981 56.5417 47.668 57.0652C46.6379 57.5886 46.2275 58.8511 46.7509 59.8813C47.2828 60.9239 47.9276 61.9687 48.6919 63.0051C49.3765 63.9347 50.6872 64.1337 51.6189 63.449C52.5485 62.7623 52.7474 61.4516 52.0628 60.5219Z" fill="currentColor"/>
<path fill-rule="evenodd" clip-rule="evenodd" d="M49.0025 51.9774C49.0235 51.1336 49.147 50.3149 49.3731 49.5298C49.6914 48.4201 49.0486 47.258 47.9368 46.9398C46.8271 46.6215 45.6651 47.2643 45.3469 48.3761C45.0265 49.4984 44.8465 50.6688 44.815 51.8727C44.7878 53.0284 45.7007 53.9895 46.8565 54.0167C48.0122 54.046 48.9732 53.1331 49.0025 51.9774Z" fill="currentColor"/>
<path fill-rule="evenodd" clip-rule="evenodd" d="M52.2229 44.9842C52.761 44.4859 53.364 44.0253 54.0235 43.6086C55.0013 42.991 55.2945 41.697 54.6789 40.7213C54.0612 39.7436 52.7673 39.4504 51.7895 40.066C50.9039 40.625 50.0999 41.2427 49.3775 41.9127C48.5295 42.6978 48.4793 44.0232 49.2645 44.8712C50.0496 45.7191 51.375 45.7694 52.2229 44.9842Z" fill="currentColor"/>
<path fill-rule="evenodd" clip-rule="evenodd" d="M60.0099 41.3725C61.0631 41.1778 62.1791 41.0522 63.3557 41.004C64.5115 40.9537 65.4076 39.976 65.3595 38.8223C65.3113 37.6687 64.3335 36.7704 63.1778 36.8186C61.7959 36.8772 60.4852 37.0259 59.2478 37.2541C58.113 37.4656 57.3592 38.5585 57.5707 39.6933C57.7801 40.8302 58.873 41.5819 60.0099 41.3725Z" fill="currentColor"/>
<path fill-rule="evenodd" clip-rule="evenodd" d="M70.9223 41.249C72.7083 41.2699 74.3707 41.2071 75.9138 41.071C77.0654 40.9684 77.9175 39.9508 77.8149 38.7993C77.7123 37.6498 76.6948 36.7977 75.5432 36.9002C74.1299 37.0238 72.6078 37.0824 70.9705 37.0615C69.8147 37.0489 68.8662 37.9764 68.8537 39.1301C68.839 40.2858 69.7666 41.2364 70.9223 41.249Z" fill="currentColor"/>
<path fill-rule="evenodd" clip-rule="evenodd" d="M82.7953 39.7875C84.8681 39.1531 86.6185 38.3408 88.0841 37.409C89.0577 36.7872 89.3466 35.4933 88.7248 34.5176C88.105 33.544 86.809 33.255 85.8333 33.8769C84.6545 34.6264 83.2412 35.2713 81.5704 35.7822C80.467 36.1214 79.8431 37.2918 80.1823 38.3973C80.5194 39.5028 81.6919 40.1246 82.7953 39.7875Z" fill="currentColor"/>
<path fill-rule="evenodd" clip-rule="evenodd" d="M93.4523 31.5486C94.4405 29.5051 94.8195 27.3444 94.7232 25.2611C94.6688 24.1054 93.6868 23.2134 92.5331 23.2679C91.3795 23.3223 90.4855 24.3022 90.5399 25.4558C90.6069 26.8712 90.3515 28.3389 89.6815 29.7271C89.179 30.7677 89.6145 32.0218 90.6551 32.5243C91.6956 33.0268 92.9498 32.5892 93.4523 31.5486Z" fill="currentColor"/>
<path fill-rule="evenodd" clip-rule="evenodd" d="M92.1193 17.8576C90.5929 15.7953 88.5222 14.3589 86.2651 13.8962C85.1324 13.6659 84.0248 14.3945 83.7924 15.5273C83.5621 16.66 84.2928 17.7676 85.4234 18C86.7258 18.2659 87.8731 19.1599 88.7546 20.3513C89.4434 21.2788 90.7562 21.4735 91.6838 20.7868C92.6134 20.0979 92.8081 18.7851 92.1193 17.8576Z" fill="currentColor "/>
<path fill-rule="evenodd" clip-rule="evenodd" d="M64.7656 14.3024C67.0311 1.47401 86.6642 2.30314 75.2344 14.3024H64.7656Z" fill="url(#paint8_linear_530_18345)"/>
<path fill-rule="evenodd" clip-rule="evenodd" d="M64.7656 17.5519C67.0311 30.3782 86.6642 29.5512 75.2344 17.5519H64.7656Z" fill="url(#paint9_linear_530_18345)"/>
<path fill-rule="evenodd" clip-rule="evenodd" d="M64.5781 18.0419H78.5979C79.7536 18.0419 80.6916 17.1039 80.6916 15.9481C80.6916 14.7924 79.7536 13.8544 78.5979 13.8544H64.5781C63.4245 13.8544 62.4844 14.7924 62.4844 15.9481C62.4844 17.1039 63.4245 18.0419 64.5781 18.0419Z" fill="currentColor"/>
<defs>
<linearGradient id="paint0_linear_530_18345" x1="25.125" y1="101.7" x2="108.875" y2="101.7" gradientUnits="userSpaceOnUse">
<stop stop-color="#CADCF0"/>
<stop offset="1" stop-color="#A4BBDB"/>
</linearGradient>
<linearGradient id="paint1_linear_530_18345" x1="66.8208" y1="101.7" x2="108.876" y2="101.7" gradientUnits="userSpaceOnUse">
<stop stop-color="#A4BBDB"/>
<stop offset="1" stop-color="#8DA3BE"/>
</linearGradient>
<linearGradient id="paint2_linear_530_18345" x1="25.4036" y1="74.5564" x2="31.2562" y2="113.277" gradientUnits="userSpaceOnUse">
<stop stop-color="#E9F3FC"/>
<stop offset="1" stop-color="#CADCF0"/>
</linearGradient>
<linearGradient id="paint3_linear_530_18345" x1="67.1696" y1="88.0171" x2="111.314" y2="113.406" gradientUnits="userSpaceOnUse">
<stop stop-color="#E9F3FC"/>
<stop offset="1" stop-color="#CADCF0"/>
</linearGradient>
<linearGradient id="paint4_linear_530_18345" x1="19.6439" y1="66.4473" x2="25.9608" y2="36.6694" gradientUnits="userSpaceOnUse">
<stop stop-color="#E9F3FC"/>
<stop offset="1" stop-color="#CADCF0"/>
</linearGradient>
<linearGradient id="paint5_linear_530_18345" x1="78.2099" y1="44.7162" x2="80.4687" y2="81.4715" gradientUnits="userSpaceOnUse">
<stop stop-color="#E9F3FC"/>
<stop offset="1" stop-color="#CADCF0"/>
</linearGradient>
<linearGradient id="paint6_linear_530_18345" x1="25.125" y1="74.5501" x2="108.875" y2="74.5501" gradientUnits="userSpaceOnUse">
<stop stop-color="#CADCF0"/>
<stop offset="1" stop-color="#A4BBDB"/>
</linearGradient>
<linearGradient id="paint7_linear_530_18345" x1="71.288" y1="60.3314" x2="72.1904" y2="94.1518" gradientUnits="userSpaceOnUse">
<stop stop-color="#A4BBDB"/>
<stop offset="1" stop-color="#8DA3BE"/>
</linearGradient>
<linearGradient id="paint8_linear_530_18345" x1="64.7656" y1="9.64592" x2="78.7833" y2="9.64592" gradientUnits="userSpaceOnUse">
<stop stop-color="#E9F3FC"/>
<stop offset="1" stop-color="#CADCF0"/>
</linearGradient>
<linearGradient id="paint9_linear_530_18345" x1="64.7656" y1="22.2084" x2="78.7833" y2="22.2084" gradientUnits="userSpaceOnUse">
<stop stop-color="#E9F3FC"/>
<stop offset="1" stop-color="#CADCF0"/>
</linearGradient>
</defs>
</svg>
